 <svg class="w-4 h-4"
              fill="none"
              viewBox="0 0 24 24"
              xmlns="http://www.w3.org/2000/svg"
            >
              <g clip-path="url(#clip0_404_952)" transform="translate(4 4)" >
                <path d="M15.7425 7.005C15.6275 6.99 15.515 7.0625 15.4775 7.1725C14.7575 9.3125 12.7575 10.75 10.5 10.75C7.605 10.75 5.25 8.395 5.25 5.5C5.25 3.2425 6.6875 1.2425 8.8275 0.5225C8.94 0.485 9.01 0.375 8.995 0.2575C8.98 0.14 8.8875 0.0475 8.77 0.0375C8.5175 0.0125 8.2575 0 8 0C3.59 0 0 3.59 0 8C0 12.41 3.59 16 8 16C12.41 16 16 12.41 16 8C16 7.7475 15.9875 7.49 15.9625 7.23C15.9525 7.1125 15.86 7.0175 15.7425 7.005ZM8 15.5C3.865 15.5 0.5 12.135 0.5 8C0.5 3.865 3.6725 0.695 7.6425 0.5075C5.8775 1.5175 4.75 3.4075 4.75 5.5C4.75 8.67 7.33 11.25 10.5 11.25C12.5925 11.25 14.4825 10.1225 15.4925 8.3575C15.305 12.3275 12.0175 15.5 8 15.5Z" fill="white"/>
                <path d="M9.5 3.5C10.0525 3.5 10.5 3.9475 10.5 4.5C10.5 4.6375 10.6125 4.75 10.75 4.75C10.8875 4.75 11 4.6375 11 4.5C11 3.9475 11.4475 3.5 12 3.5C12.1375 3.5 12.25 3.3875 12.25 3.25C12.25 3.1125 12.1375 3 12 3C11.4475 3 11 2.5525 11 2C11 1.8625 10.8875 1.75 10.75 1.75C10.6125 1.75 10.5 1.8625 10.5 2C10.5 2.5525 10.0525 3 9.5 3C9.3625 3 9.25 3.1125 9.25 3.25C9.25 3.3875 9.3625 3.5 9.5 3.5ZM10.75 2.8275C10.86 2.995 11.005 3.1375 11.1725 3.25C11.005 3.36 10.8625 3.505 10.75 3.6725C10.64 3.505 10.495 3.3625 10.3275 3.25C10.495 3.14 10.6375 2.995 10.75 2.8275Z" fill="white"/>
                <path d="M12.75 2C13.44 2 14 2.56 14 3.25C14 3.3875 14.1125 3.5 14.25 3.5C14.3875 3.5 14.5 3.3875 14.5 3.25C14.5 2.56 15.06 2 15.75 2C15.8875 2 16 1.8875 16 1.75C16 1.6125 15.8875 1.5 15.75 1.5C15.06 1.5 14.5 0.94 14.5 0.25C14.5 0.1125 14.3875 0 14.25 0C14.1125 0 14 0.1125 14 0.25C14 0.94 13.44 1.5 12.75 1.5C12.6125 1.5 12.5 1.6125 12.5 1.75C12.5 1.8875 12.6125 2 12.75 2ZM14.25 1.15C14.3975 1.395 14.605 1.6025 14.85 1.75C14.605 1.8975 14.3975 2.105 14.25 2.35C14.1025 2.105 13.895 1.8975 13.65 1.75C13.895 1.6025 14.1025 1.395 14.25 1.15Z" fill="white"/>
              </g>
          <defs>
            <clipPath id="clip0_404_952">
              <rect width="26" height="26" fill="white"/>
            </clipPath>
          </defs>
            </svg>