  <svg
                  class="w-6 h-6"
                  fill="none"
                  viewBox="0 0 24 24"
                  xmlns="http://www.w3.org/2000/svg"
                >
                  <g clip-path="url(#clip0_403_940)" transform="translate(4 4)">
                <path fill-rule="evenodd" clip-rule="evenodd" d="M7.92419 12.0194C10.1861 12.0194 12.0194 10.1861 12.0194 7.92419C12.0194 5.66228 10.1861 3.82895 7.92419 3.82895C5.66228 3.82895 3.82895 5.66228 3.82895 7.92419C3.82895 10.1861 5.66228 12.0194 7.92419 12.0194ZM7.92419 12.4004C10.396 12.4004 12.4004 10.396 12.4004 7.92419C12.4004 5.45181 10.396 3.448 7.92419 3.448C5.45181 3.448 3.448 5.45181 3.448 7.92419C3.448 10.396 5.45181 12.4004 7.92419 12.4004Z" fill="black"/>
                <path d="M7.59753 0.211314C7.59753 0.094499 7.69203 0 7.80885 0C7.92566 0 8.02016 0.0944933 8.02016 0.211314V1.89956C8.02016 2.01638 7.92567 2.11088 7.80885 2.11088C7.69203 2.11088 7.59753 2.01638 7.59753 1.89956V0.211314Z" fill="black"/>
                <path d="M7.59753 13.9293C7.59753 13.8125 7.69203 13.718 7.80885 13.718C7.92566 13.718 8.02016 13.8125 8.02016 13.9293V15.6176C8.02016 15.7344 7.92567 15.8289 7.80885 15.8289C7.69203 15.8289 7.59753 15.7344 7.59753 15.6176V13.9293Z" fill="black"/>
                <path d="M0.211314 8.02004C0.094499 8.02004 0 7.92555 0 7.80873C0 7.69191 0.0944933 7.59741 0.211314 7.59741H1.89956C2.01638 7.59741 2.11088 7.69191 2.11088 7.80873C2.11088 7.92554 2.01638 8.02004 1.89956 8.02004H0.211314Z" fill="black"/>
                <path d="M13.9293 8.02004C13.8125 8.02004 13.718 7.92555 13.718 7.80873C13.718 7.69191 13.8125 7.59741 13.9293 7.59741H15.6176C15.7344 7.59741 15.8289 7.69191 15.8289 7.80873C15.8289 7.92554 15.7344 8.02004 15.6176 8.02004H13.9293Z" fill="black"/>
                <path d="M3.40249 12.128C3.48508 12.0454 3.61827 12.0454 3.70086 12.128C3.78344 12.2106 3.78344 12.3438 3.70086 12.4263L2.50667 13.6205C2.42482 13.7024 2.29089 13.7024 2.2083 13.6205C2.12572 13.5379 2.12572 13.404 2.2083 13.3214L3.40249 12.128Z" fill="black"/>
                <path d="M13.3216 2.20836C13.4041 2.12651 13.5381 2.12651 13.6199 2.20836C13.7025 2.29095 13.7025 2.42487 13.6199 2.50672L12.4265 3.70091C12.3439 3.7835 12.2107 3.7835 12.1281 3.70091C12.0455 3.61832 12.0455 3.48514 12.1281 3.40255L13.3216 2.20836Z" fill="black"/>
                <path d="M2.20843 2.50672C2.12584 2.42487 2.12584 2.29095 2.20843 2.20836C2.29101 2.12651 2.42494 2.12651 2.50679 2.20836L3.70098 3.40255C3.78357 3.48514 3.78357 3.61832 3.70098 3.70091C3.61839 3.7835 3.48521 3.7835 3.40262 3.70091L2.20843 2.50672Z" fill="black"/>
                <path d="M12.128 12.4263C12.0454 12.3438 12.0454 12.2106 12.128 12.128C12.2106 12.0454 12.3438 12.0454 12.4263 12.128L13.6205 13.3214C13.7024 13.404 13.7024 13.5379 13.6205 13.6205C13.5379 13.7024 13.404 13.7024 13.3214 13.6205L12.128 12.4263Z" fill="black"/>
              </g>
              <defs>
                <clipPath id="clip0_403_940">
                  <rect width="16" height="16" fill="white"/>
                </clipPath>
              </defs>
                </svg>