<svg width="142" height="115" viewBox="0 0 142 115" fill="none" xmlns="http://www.w3.org/2000/svg">
<path d="M39.4596 28.6654C56.2644 5.66315 85.5592 1.24449 96.4596 25.1879C103.234 40.0667 120.25 29.1681 132.908 45.2865C145.566 61.4049 124.392 84.5701 109.115 93.3088C96.7639 100.372 67.2125 109.025 47.8007 94.647C28.3889 80.2685 26.8356 45.9614 39.4596 28.6654Z" fill="#B7CEB7"/>
<mask id="mask0_208_2561" style="mask-type:luminance" maskUnits="userSpaceOnUse" x="0" y="0" width="142" height="115">
<path d="M141.245 0H0.564117V114.77H141.245V0Z" fill="white"/>
</mask>
<g mask="url(#mask0_208_2561)">
<path d="M41.8259 47.0784C43.2952 44.8932 44.6645 42.5082 44.8667 39.8754C45.0688 37.2426 43.7789 34.3228 41.3149 33.4483C39.1349 32.6701 36.6505 33.6778 35.0063 35.3259C33.3622 36.974 32.3675 39.1432 31.3524 41.2435C26.1293 52.0319 18.3128 64.9964 10.376 73.9186C11.8725 72.2384 18.5513 70.4755 22.4709 66.9084C24.2876 65.2649 25.582 63.9657 27.4828 62.4347C32.9602 58.0183 37.8859 52.9455 41.8259 47.0784Z" fill="#E0A23C"/>
<path d="M40.502 37.4629C34.2433 49.7709 23.8016 64.1952 11.1776 73.5008" stroke="#E8E8E8" stroke-width="0.85" stroke-linecap="round" stroke-linejoin="round"/>
<path d="M87.3055 -8.6377C87.2777 -5.35854 86.7679 -2.10176 85.7931 1.02598" stroke="#E8C79A" stroke-width="0.78" stroke-linecap="round" stroke-linejoin="round"/>
<path d="M52.7604 61.4041L53.6188 59.0307L51.1753 53.4528L46.1111 52.3809L40.4861 56.7766C40.4861 56.7766 40.4021 57.0933 40.259 57.5914L39.4664 56.8661C35.6312 59.879 31.6113 62.6436 27.4306 65.1433C21.5421 68.6324 14.5091 71.637 11.2821 73.7305C10.3737 74.3135 9.16787 75.1398 7.78261 76.0924C7.78261 76.0924 7.38747 76.3495 6.74026 76.8086L6.53133 76.9532C2.7548 79.6572 -8.11608 88.1755 -4.50532 94.2836C2.02356 105.324 19.5528 88.832 19.5528 88.832C26.1884 82.1913 33.478 74.3135 38.5149 68.7701C40.1847 66.8962 42.2929 65.4755 44.6464 64.6383C45.4707 64.356 47.7803 64.5488 48.6795 64.6797C51.6726 65.1273 52.7604 61.4041 52.7604 61.4041Z" fill="#E89E9E"/>
<path d="M39.2348 57.084C39.2348 57.084 48.6341 45.965 53.5688 44.1104C53.5688 44.1104 54.9518 44.7462 54.2933 46.4723C53.6347 48.1985 50.544 49.6859 49.9785 51.3065C49.4131 52.927 50.5758 53.0165 52.0223 53.0831C53.4689 53.1497 65.0778 50.3286 65.934 51.0953C66.7901 51.8619 65.4798 52.6493 64.6123 53.0234C63.7448 53.3976 57.4407 55.2982 57.4407 55.2982C57.4407 55.2982 68.5864 52.6539 68.7953 54.722C68.9316 56.0625 58.658 58.1996 58.658 58.1996C58.658 58.1996 67.5849 55.9983 67.4918 57.7198C67.4101 59.1889 60.0137 60.4514 60.0137 60.4514C60.0137 60.4514 64.6464 59.4506 64.6918 60.4743C64.7508 61.7735 58.2855 63.277 56.3621 63.8945C54.4386 64.5119 50.0035 65.1156 48.4388 64.6313C46.8742 64.147 45.7591 63.6649 44.6509 64.31" fill="#E89E9E"/>
<path d="M33.6256 59.9102C33.6256 59.9102 39.48 66.436 40.3657 68.2287C40.3657 68.2287 27.7076 88.1047 5.95905 99.1984L-11.0002 98.0897L0.972118 72.4133C0.972118 72.4133 28.0187 62.7427 33.6256 59.9102Z" fill="#558283"/>
<path d="M49.9762 51.3066C49.8973 51.7164 49.8488 52.1314 49.8309 52.5485C49.8074 52.9623 49.8135 53.3773 49.8491 53.7903C49.8899 54.1989 49.9467 54.6235 49.9581 55.0459C49.9709 55.4698 49.9519 55.8942 49.9013 56.3152C49.8096 57.1657 49.5285 57.9842 49.0792 58.7093C48.9614 58.8857 48.8316 59.0537 48.6909 59.212C48.6205 59.2901 48.5524 59.3727 48.4774 59.4416L48.2503 59.6505C48.0888 59.7849 47.918 59.9076 47.7394 60.0177C47.5622 60.1279 47.3692 60.2105 47.1853 60.3046C47.9035 59.8996 48.5059 59.3136 48.9339 58.6037C49.1373 58.2493 49.3003 57.8728 49.4199 57.4813C49.4903 57.2885 49.5266 57.0842 49.5788 56.8868C49.631 56.6894 49.6583 56.4828 49.6765 56.2785C49.765 55.453 49.765 54.6203 49.6765 53.7949C49.6364 52.9543 49.7378 52.1129 49.9762 51.3066Z" fill="#A55D5D"/>
<path d="M34.6952 57.6143C34.6952 57.6143 42.2597 65.3911 42.6889 66.7316C43.1181 68.0721 41.642 68.5496 40.0796 68.6575C38.5172 68.7654 32.5992 60.7337 32.6423 59.9097C32.6855 59.0856 33.5825 57.6671 34.6952 57.6143Z" fill="#6D9B9B"/>
<path d="M121.467 29.8171C116.366 30.0627 97.343 34.4814 97.343 34.4814C97.343 34.4814 100.506 40.1235 100.472 43.7181C100.472 43.7181 118.254 43.1787 120.318 44.005C120.643 44.2598 128.779 42.1067 134.786 37.6513C128.559 31.2839 126.981 29.5554 121.467 29.8171Z" fill="#FBC8C7"/>
<path d="M107.251 36.3524C104.24 33.7632 97.8131 34.2865 97.8131 34.2865C97.8131 34.2865 97.7336 34.4151 91.6816 35.6431C90.6892 35.8451 88.5727 35.8956 84.6077 36.66C82.389 37.0892 79.5118 37.8834 77.2431 39.0036C75.4264 39.9011 75.2243 41.1521 75.7988 41.6984C74.6384 42.3434 74.6793 44.0627 75.6331 44.4116C75.1948 44.6756 74.7043 45.7429 75.2833 46.4338C75.9851 47.2786 76.957 47.0375 77.6406 46.707C77.6406 46.707 77.2363 47.5701 77.8926 48.0842C78.5489 48.5984 79.103 48.7361 81.3739 47.7147C83.6449 46.6932 85.641 46.3558 87.921 46.6657C87.6939 46.7093 88.1299 47.7698 87.8937 47.8363L87.9551 50.7079C88.7453 50.6276 88.6704 50.6 89.6832 50.4508C92.3266 50.0629 93.9503 48.727 95.6149 45.8302C97.0387 43.3534 101.369 44.0856 104.624 43.5347C104.624 43.5256 110.262 38.9416 107.251 36.3524Z" fill="#FBC8C7"/>
<path d="M75.7988 41.7024C76.8139 42.5287 78.2605 41.7574 79.2983 41.3443C80.4226 40.8812 81.5833 40.5141 82.7683 40.2471C82.1593 40.3058 81.5562 40.4156 80.9652 40.5753C79.7707 40.8324 78.6942 41.482 77.5293 41.8194C76.9661 41.964 76.303 42.0811 75.7988 41.7024Z" fill="#FB929C"/>
<path d="M75.6331 44.4131C76.8843 45.1339 78.2242 44.0964 79.4028 43.7015C80.6268 43.2172 81.8644 42.7627 83.1293 42.4023C81.8284 42.639 80.5552 43.0113 79.3301 43.5133C78.1356 43.9242 76.9366 44.9663 75.6331 44.4131Z" fill="#FB929C"/>
<path d="M77.6405 46.7112C79.4368 46.119 82.0415 45.1481 83.8287 44.6201C81.6827 44.9759 79.6048 45.7678 77.6405 46.7112Z" fill="#FB929C"/>
<path d="M100.852 44.6915C100.852 44.6915 99.0121 34.7523 98.676 33.1478C98.676 33.1478 129.729 25.55 143.334 27.2004L141.208 43.3234C141.208 43.3234 104.787 45.4352 100.852 44.6915Z" fill="#E37F4F"/>
<path d="M62.5693 80.3565L104.021 70.0264L96.3101 38.4127L54.8582 48.7428L62.5693 80.3565Z" fill="#E0A23C"/>
<path d="M84.079 72.0314L99.9189 68.084L97.9864 60.1611L82.1465 64.1085L84.079 72.0314Z" fill="white"/>
<path d="M83.6037 65.358L93.4772 62.8975L93.3549 62.396L83.4814 64.8566L83.6037 65.358Z" fill="#EFDE9D"/>
<path d="M83.9235 66.6617L93.7971 64.2012L93.6747 63.6997L83.8012 66.1603L83.9235 66.6617Z" fill="#EFDE9D"/>
<path d="M84.2459 67.9852L91.1384 66.2676L91.0161 65.7661L84.1236 67.4838L84.2459 67.9852Z" fill="#EFDE9D"/>
<path d="M73.2903 59.5196L84.941 56.6162L81.4069 42.1276L69.7563 45.0311L73.2903 59.5196Z" fill="#EFDE9D"/>
<path d="M54.8564 48.7469L49.4199 45.2969L56.3053 73.5235L62.5685 80.3592L54.8564 48.7469Z" fill="#C68424"/>
<path d="M96.3097 38.4152L89.6491 35.2705L49.4199 45.2969L54.8564 48.7469L96.3097 38.4152Z" fill="#DB9837"/>
<path d="M81.408 42.1299L75.0335 38.9141L64.4102 41.5607L69.7582 45.0336L81.408 42.1299Z" fill="#EFDE9D"/>
<path d="M138.515 71.0838C133.494 72.0204 113.973 72.0961 113.973 72.0961C113.973 72.0961 115.79 65.8756 114.938 62.3819C114.938 62.3819 132.376 58.8149 134.198 57.534C134.459 57.2127 142.866 57.4353 149.717 60.3918C145.091 68.0241 143.942 70.0693 138.515 71.0838Z" fill="#FBC8C7"/>
<path d="M123.197 67.9948C120.849 71.2083 114.473 72.177 114.473 72.177C114.473 72.177 114.366 72.0691 108.198 72.2665C107.187 72.3009 105.116 72.7371 101.083 72.9046C98.8259 72.9987 95.8419 72.8863 93.3825 72.317C91.4113 71.8579 90.9345 70.6919 91.3682 70.0216C90.0919 69.6635 89.7445 67.9787 90.5961 67.4186C90.1101 67.2625 89.3925 66.3375 89.8013 65.5295C90.2941 64.5471 91.2933 64.5562 92.0336 64.7215C92.0336 64.7215 91.4454 63.9755 91.97 63.3305C92.4946 62.6855 93.0033 62.4123 95.4422 62.8875C97.8812 63.3626 99.9046 63.2295 102.055 62.4031C101.828 62.4031 102.01 61.2807 101.764 61.2692L101.176 58.4596C101.964 58.354 101.896 58.3999 102.918 58.3104C105.58 58.0809 107.46 58.9991 109.731 61.446C111.675 63.5302 115.728 61.8178 119.021 61.6112C119.026 61.6158 125.548 64.7812 123.197 67.9948Z" fill="#FBC8C7"/>
<path d="M91.3705 70.0254C92.1721 68.9856 93.7527 69.4034 94.8564 69.5664C96.058 69.758 97.2733 69.8486 98.4898 69.8372C97.8833 69.919 97.2711 69.9505 96.6595 69.9313C95.4377 69.9543 94.2409 69.5732 93.026 69.5113C92.4424 69.5113 91.7724 69.5388 91.3682 70.0232L91.3705 70.0254Z" fill="#FB929C"/>
<path d="M90.5961 67.4225C91.652 66.4355 93.1917 67.1356 94.4271 67.2481C95.7283 67.4386 97.0341 67.5947 98.349 67.6544C97.0284 67.7241 95.7042 67.6557 94.3976 67.4501C93.1418 67.3238 91.7406 66.587 90.5961 67.4225Z" fill="#FB929C"/>
<path d="M92.0359 64.7305C93.9162 64.8934 96.6731 65.2423 98.533 65.341C96.3506 65.4834 94.1569 65.1896 92.0359 64.7305Z" fill="#FB929C"/>
<path d="M115.09 61.3492C115.09 61.3492 115.544 71.449 115.572 73.0902C115.572 73.0902 147.519 73.3381 160.395 68.6003L154.693 53.3887C154.693 53.3887 118.753 59.7171 115.09 61.3492Z" fill="#E37F4F"/>
<path d="M101.574 60.3252C101.574 60.3252 102.564 61.5555 102.064 62.4071L101.574 60.3252Z" fill="#FB929C"/>
<path d="M62.1869 82.8162L63.0453 80.4428L60.6018 74.8649L55.5377 73.793L49.9058 78.1887C49.9058 78.1887 49.8218 78.5077 49.6787 79.0035L48.8885 78.2736C45.0531 81.2863 41.0331 84.0509 36.8526 86.5509C30.9755 90.033 23.9424 93.0423 20.7155 95.1357C19.8071 95.721 18.599 96.5474 17.216 97.4977C17.216 97.4977 16.8208 97.7547 16.1736 98.2138L15.9647 98.3584C12.1904 101.062 1.31957 109.581 4.93032 115.691C11.4524 126.727 28.9839 110.242 28.9839 110.242C35.6195 103.599 42.9069 95.721 47.946 90.1799C49.6154 88.3055 51.7237 86.8848 54.0775 86.0482C54.9018 85.7635 57.2114 85.9586 58.1084 86.0895C61.0969 86.5371 62.1869 82.8162 62.1869 82.8162Z" fill="#E89E9E"/>
<path d="M48.6614 78.5026C48.6614 78.5026 58.063 67.3836 62.9977 65.5312C62.9977 65.5312 64.3784 66.1648 63.7221 67.8932C63.0658 69.6217 59.9728 71.1068 59.4074 72.7274C58.8419 74.3479 60.0069 74.4374 61.4512 74.504C62.8955 74.5706 72.5787 72.2407 73.6846 72.5805C75.222 73.0556 74.7746 74.605 73.9117 74.9769C73.0487 75.3487 66.8719 76.7168 66.8719 76.7168C66.8719 76.7168 75.5672 73.9623 75.8352 76.7604C75.9964 78.459 68.0891 79.6182 68.0891 79.6182C68.0891 79.6182 76.1872 77.1162 76.3461 79.547C76.4438 81.0161 69.4448 81.8723 69.4448 81.8723C69.4448 81.8723 73.839 80.9105 74.1229 81.8952C74.8405 84.3766 68.1731 85.0124 66.2474 85.6276C64.3216 86.2427 59.4346 86.5457 57.8699 86.0522C56.3053 85.5587 55.1903 85.0835 54.0821 85.7286" fill="#E89E9E"/>
<path d="M43.0522 81.3262C43.0522 81.3262 48.9044 87.852 49.7923 89.6447C49.7923 89.6447 37.1342 109.521 15.3856 120.612L-1.57358 119.503L10.3987 93.827C10.3987 93.827 37.4453 84.1564 43.0522 81.3262Z" fill="#558283"/>
<path d="M60.0977 74.3572C59.93 74.3336 59.7602 74.3282 59.5913 74.3412C59.4233 74.3412 59.2575 74.371 59.094 74.3917C58.7651 74.4467 58.4409 74.5273 58.1243 74.6327C57.8064 74.7268 57.4975 74.8622 57.1841 74.9862L56.7299 75.1905C56.5755 75.2616 56.4234 75.3397 56.2644 75.4039C56.3961 75.2938 56.5369 75.1951 56.6732 75.0895C56.8094 74.9839 56.9638 74.9035 57.1137 74.8186C57.4164 74.6506 57.7342 74.5122 58.063 74.4054C58.3942 74.2972 58.7375 74.2309 59.0849 74.208C59.4293 74.1814 59.7752 74.2324 60.0977 74.3572Z" fill="#A55D5D"/>
<path d="M62.246 77.2263C63.2702 77.0335 64.2898 76.8843 65.3231 76.7397C66.3563 76.5951 67.3669 76.4573 68.4161 76.3701C67.4112 76.6451 66.3892 76.8522 65.3571 76.9899C64.3266 77.1398 63.2871 77.2188 62.246 77.2263Z" fill="#A55D5D"/>
<path d="M63.0453 80.4419C64.2948 80.0785 65.5622 79.7812 66.8423 79.5512C68.1187 79.3089 69.4076 79.1395 70.7029 79.0439C69.4312 79.3286 68.1572 79.5627 66.8832 79.8014C65.6092 80.0402 64.3307 80.2628 63.0453 80.4419Z" fill="#A55D5D"/>
<path d="M71.2797 81.5488C70.3386 81.839 69.3836 82.0811 68.4183 82.2742C67.9346 82.3706 67.4509 82.4624 66.965 82.5381C66.479 82.6139 65.9862 82.6805 65.4934 82.7126C65.9703 82.5841 66.4472 82.4555 66.9264 82.3453C67.4055 82.2352 67.887 82.1273 68.3684 82.0263C69.3267 81.8335 70.2941 81.6544 71.2797 81.5488Z" fill="#A55D5D"/>
<path d="M44.3466 79.5289C45.1732 79.8365 51.3138 87.7924 51.5273 88.7771C51.7407 89.7619 49.6901 90.3839 49.0906 90.1544C48.491 89.9248 42.1665 81.5558 42.1665 81.1242C42.1665 80.6927 43.0726 79.0538 44.3466 79.5289Z" fill="#6D9B9B"/>
</g>
<path d="M104.787 76.4834C104.787 76.4834 103.717 95.3563 84.149 93.1825L85.6591 86.8518L74.409 91.7961L81.953 103.523L83.3609 97.996C83.3609 97.996 104.201 99.8759 104.787 76.4834Z" fill="#E0A23C"/>
<path d="M54.8337 43.9911C54.8337 43.9911 52.8648 25.194 72.5241 24.1358L72.0518 30.6272L82.3595 23.9062L73.0328 13.5654L72.5287 19.2512C72.5287 19.2512 51.6635 20.8143 54.8337 43.9911Z" fill="#558283"/>
</svg>
