<svg width="645" height="651" viewBox="0 0 645 651" fill="none" xmlns="http://www.w3.org/2000/svg">
<path d="M643.356 0.337891H0.925293V650.039H643.356V0.337891Z" fill="#CCE2CC"/>
<path d="M93.1265 162.269C188.206 32.0562 353.953 7.04274 415.626 142.583C453.954 226.81 550.228 165.115 621.847 256.359C693.465 347.603 573.664 478.738 487.232 528.207C417.348 568.189 250.149 617.177 140.319 535.782C30.4896 454.388 21.7011 260.179 93.1265 162.269Z" fill="#B7CEB7"/>
<mask id="mask0_178_3396" style="mask-type:luminance" maskUnits="userSpaceOnUse" x="1" y="0" width="643" height="650">
<path d="M643.715 0H1.28467V649.701H643.715V0Z" fill="white"/>
</mask>
<g mask="url(#mask0_178_3396)">
<path d="M186.78 565.019C152.088 571.646 130.991 609.276 97.5076 620.49C111.643 610.201 124.495 598.22 135.784 584.808C140.486 579.221 145.009 573.192 146.885 566.11C148.761 559.028 147.412 550.621 141.887 545.891C135.629 540.525 125.813 541.434 118.926 545.891C112.039 550.348 107.504 557.716 103.598 565.006C96.5054 578.233 90.7492 592.189 83.1171 605.105C75.4851 618.021 65.643 630.21 52.5632 637.317C66.1505 621.034 76.7817 602.447 83.9652 582.418C86.0081 576.7 87.8197 570.632 86.8946 564.616C85.9695 558.6 81.6781 552.7 75.7164 551.908C71.977 551.608 68.2627 552.74 65.309 555.078C53.0129 563.966 51.7152 581.443 48.3874 596.334C43.8066 616.714 33.578 635.352 18.8998 650.064C23.2598 639.019 27.6197 627.979 31.9797 616.943C35.5259 607.938 39.1492 598.543 38.404 588.876C37.8901 582.573 34.2667 575.505 28.0223 574.985C23.9108 574.647 20.1076 577.363 17.4222 580.546C9.71306 589.642 8.4282 602.415 6.25679 614.214C2.24802 636.252 -1.81214 654.015 -16.7037 676.988C-17.4617 679.782 -13.9669 684.563 -9.68834 683.485C-5.40975 682.406 0.988855 679.587 5.21605 678.287C18.9384 674.246 40.6268 678.469 54.6575 687.045C68.6882 695.621 76.5001 702.638 89.3487 712.825C92.6637 715.424 96.2741 718.023 100.45 718.634C104.626 719.244 109.444 717.191 110.729 713.111C111.551 710.422 110.729 707.485 109.444 704.964C105.114 696.284 96.6981 690.593 88.6292 685.291L61.5315 667.541C59.4629 666.177 57.0859 664.033 57.8696 661.655C85.7511 667.424 107.491 690.814 135.244 697.22C139.561 698.22 144.456 698.675 148.093 696.115C154.517 691.619 152.217 680.808 146.088 676C139.959 671.193 131.775 670.387 124.246 668.776C108.92 665.491 94.687 658.278 82.9116 647.829C83.1685 644.321 88.2438 644.217 91.5587 645.231C106.078 649.856 120.288 655.626 135.244 658.588C150.2 661.551 166.26 661.473 179.931 654.69C183.657 652.858 187.281 650.402 189.324 646.764C191.367 643.126 191.367 638.058 188.437 635.069C186.958 633.747 185.2 632.783 183.298 632.25C157.395 623.349 128.781 637.447 101.863 632.522C116.922 629.755 135.745 625.012 150.842 618.515C158.641 614.777 166.141 610.432 173.276 605.521C183.992 598.231 190.968 593.242 197.56 582.521C202.378 574.712 198.099 562.862 186.78 565.019Z" fill="#25405C"/>
<path d="M566.764 462.587C557.655 474.359 549.008 487.276 546.875 502.089C544.742 516.902 550.909 533.872 564.49 539.771C576.504 544.969 590.907 540.239 600.813 531.598C610.72 522.957 617.144 511.055 623.684 499.594C657.206 440.744 706.275 370.485 754.47 323.161C745.386 332.088 707.046 339.469 683.533 358.076C672.688 366.652 664.851 373.487 653.544 381.4C620.947 404.218 591.228 430.972 566.764 462.587Z" fill="#558283"/>
<path d="M570.593 517.395C610.591 450.307 675.001 372.928 749.78 325.175" stroke="#E8E8E8" stroke-width="0.85" stroke-linecap="round" stroke-linejoin="round"/>
<path d="M106.515 266.507C114.828 254.137 122.575 240.636 123.719 225.732C124.862 210.828 117.564 194.3 103.624 189.349C91.289 184.944 77.2326 190.648 67.9302 199.978C58.6278 209.308 53.0001 221.587 47.2568 233.476C17.705 294.548 -26.5199 367.939 -71.4258 418.446C-62.9585 408.935 -25.1708 398.955 -2.9941 378.762C7.28478 369.459 14.6085 362.104 25.3628 353.437C56.3536 328.437 84.2222 299.72 106.515 266.507Z" fill="#E0A23C"/>
<path d="M99.0239 212.075C63.6132 281.749 4.53526 363.403 -66.8901 416.081" stroke="#E8E8E8" stroke-width="0.85" stroke-linecap="round" stroke-linejoin="round"/>
<path d="M246.77 16.3071C248.055 18.9059 252.115 19.7375 255.34 19.3997C247.602 22.2071 240.683 26.9325 235.217 33.1434C229.751 39.3543 225.913 46.8523 224.054 54.9513C222.448 62.3969 223.244 71.7525 232.097 74.0785C236.093 75.131 244.663 73.4548 248.312 71.4797C259.516 65.5674 265.696 59.1094 271.786 49.8057C271.519 51.1565 271.415 52.5355 271.478 53.9118C271.607 57.2642 272.853 60.7856 275.615 62.6438C276.977 63.436 278.493 63.9175 280.058 64.0545C281.623 64.1914 283.198 63.9804 284.674 63.4364C289.749 61.6787 294.099 58.2581 297.034 53.7169C299.74 49.5424 301.9 45.0304 303.458 40.2941C303.548 40.8008 303.651 41.2946 303.78 41.7754C303.933 42.337 304.122 42.8882 304.345 43.4256C304.476 44.3109 304.787 45.1592 305.258 45.9172C305.729 46.6752 306.35 47.3267 307.082 47.8306C308.102 48.9192 309.319 49.8012 310.666 50.4294C312.646 51.2172 314.774 51.5456 316.896 51.3905C319.017 51.2353 321.077 50.6004 322.924 49.5328C326.591 47.3481 329.722 44.3544 332.085 40.7748C338.2 31.8479 342.217 21.6255 343.829 10.8886C344.188 8.77059 344.458 6.63957 344.689 4.50855C344.891 6.17414 345.204 7.82388 345.627 9.44627C346.135 12.0801 347.437 14.4904 349.354 16.3461C352.193 18.724 356.459 18.698 359.787 17.0997C363.603 15.1405 366.987 12.4173 369.731 9.09544C379.651 -3.72965 391.471 -37.683 395.75 -65.1523C341.58 -48.6914 290.75 -22.5842 245.652 11.9411C245.728 13.458 246.109 14.9435 246.77 16.3071ZM345.448 -13.6701C345.448 -13.5141 345.37 -13.3452 345.345 -13.1893C345.369 -13.3516 345.403 -13.5122 345.448 -13.6701Z" fill="#E37F4F"/>
<path d="M315.214 -59.7727C310.396 -56.9659 305.796 -52.6909 304.01 -47.3634C302.225 -42.0358 305.578 -34.8112 311.129 -34.9021C298.884 -32.3033 286.716 -28.7559 275.872 -22.3239C265.028 -15.8919 254.029 -8.03049 247.798 2.98843C246.211 5.70184 245.464 8.83358 245.652 11.9803C290.745 -22.5483 341.57 -48.6599 395.737 -65.1262C395.968 -66.5945 396.174 -68.0498 396.366 -69.4792C396.487 -70.0803 396.473 -70.7012 396.326 -71.2963C396.179 -71.8913 395.901 -72.4454 395.514 -72.9178C395.127 -73.3902 394.64 -73.7689 394.09 -74.0261C393.539 -74.2832 392.938 -74.4124 392.332 -74.4039C377.35 -73.6373 332.586 -69.934 315.214 -59.7727Z" fill="#C6633C"/>
<path d="M234.577 56.4977C282.913 7.28942 339.832 -32.2514 396.392 -71.4673" stroke="#E8C79A" stroke-width="0.78" stroke-linecap="round" stroke-linejoin="round"/>
<path d="M257.704 7.04242C270.987 -1.13875 286.413 -5.04911 301.942 -4.17141" stroke="#E8C79A" stroke-width="0.78" stroke-linecap="round" stroke-linejoin="round"/>
<path d="M289.415 7.22464C288.836 7.1077 288.579 7.92632 288.554 8.52404C288.149 21.7681 285.117 34.7948 279.637 46.8304" stroke="#E8C79A" stroke-width="0.78" stroke-linecap="round" stroke-linejoin="round"/>
<path d="M326.624 -21.856C325.923 -3.71839 321.697 14.102 314.187 30.5879" stroke="#E8C79A" stroke-width="0.78" stroke-linecap="round" stroke-linejoin="round"/>
<path d="M363.834 -48.8965C363.676 -30.3336 360.792 -11.8974 355.276 5.8083" stroke="#E8C79A" stroke-width="0.78" stroke-linecap="round" stroke-linejoin="round"/>
<path d="M296.982 33.7841C297.113 34.5591 297.075 35.3535 296.871 36.112C296.667 36.8706 296.301 37.575 295.8 38.1761C295.457 38.7301 294.98 39.1859 294.413 39.4999C293.846 39.8138 293.209 39.9755 292.563 39.9692C289.684 39.5924 289.209 35.3694 290.687 33.4722C292.383 31.1853 296.16 30.2497 296.982 33.7841Z" fill="#E0A95D"/>
<path d="M266.994 43.0748C267.071 43.5329 267.049 44.0026 266.929 44.4513C266.809 44.9 266.595 45.3171 266.3 45.6736C266.095 46.0015 265.81 46.2706 265.472 46.4549C265.135 46.6392 264.756 46.7326 264.372 46.7261C262.676 46.5052 262.381 44.0104 263.268 42.8279C264.154 41.6455 266.505 40.9698 266.994 43.0748Z" fill="#E0A95D"/>
<path d="M250.702 57.3812C251.358 57.5893 251.962 57.9402 252.47 58.4094C252.979 58.8785 253.379 59.4545 253.644 60.0969C253.942 60.5964 254.106 61.1652 254.122 61.7482C254.138 62.3311 254.004 62.9082 253.734 63.4234C252.282 65.5544 248.787 64.229 247.875 62.2539C246.822 59.9929 247.605 56.6015 250.702 57.3812Z" fill="#E0A95D"/>
<path d="M248.338 28.184C248.937 28.3789 249.487 28.7029 249.951 29.1336C250.415 29.5643 250.78 30.0915 251.023 30.6789C251.29 31.1325 251.438 31.6481 251.451 32.176C251.465 32.7039 251.344 33.2265 251.1 33.6935C249.815 35.6426 246.59 34.4342 245.755 32.641C244.804 30.5749 245.511 27.4824 248.338 28.184Z" fill="#E0A95D"/>
<path d="M328.076 25.988C328.522 26.1354 328.931 26.3774 329.277 26.6979C329.623 27.0183 329.897 27.4099 330.081 27.8462C330.27 28.19 330.369 28.5768 330.369 28.9702C330.369 29.3635 330.27 29.7504 330.081 30.0942C329.091 31.5495 326.714 30.6529 326.098 29.3145C325.442 27.7422 325.969 25.4293 328.076 25.988Z" fill="#E0A95D"/>
<path d="M307.557 17.4118C307.789 17.8226 307.929 18.28 307.967 18.7516C308.004 19.2232 307.939 19.6974 307.775 20.1406C307.695 20.5258 307.518 20.8837 307.262 21.1796C307.005 21.4756 306.677 21.6995 306.31 21.8298C304.601 22.2196 303.471 19.9327 303.92 18.5163C304.421 16.8921 306.362 15.5927 307.557 17.4118Z" fill="#E0A95D"/>
<path d="M315.433 38.8911C315.892 38.9791 316.328 39.1662 316.709 39.4398C317.09 39.7134 317.409 40.067 317.643 40.4764C317.883 40.7863 318.041 41.153 318.101 41.5419C318.162 41.9307 318.124 42.3288 317.99 42.6984C317.18 44.2706 314.713 43.6859 313.93 42.4255C313.146 41.1651 313.274 38.6312 315.433 38.8911Z" fill="#E0A95D"/>
<path d="M570.349 142.18C570.157 142.063 569.951 141.972 569.758 141.842C567.189 140.27 564.876 137.619 565.287 134.657C565.801 131.018 570.311 129.212 573.844 130.096C572.75 129.969 571.696 129.611 570.748 129.044C569.801 128.477 568.983 127.714 568.347 126.806C567.711 125.897 567.271 124.863 567.058 123.771C566.844 122.679 566.86 121.554 567.106 120.469C567.351 119.383 567.82 118.363 568.482 117.474C569.144 116.584 569.985 115.846 570.948 115.308C571.911 114.769 572.976 114.442 574.073 114.349C575.17 114.255 576.274 114.396 577.313 114.763C577.771 117.947 577.845 121.176 577.532 124.378C576.844 130.878 574.354 137.049 570.349 142.18Z" fill="#E0A23C"/>
<path d="M577.532 124.379C577.845 121.176 577.771 117.948 577.313 114.763C578.22 115.037 579.069 115.478 579.819 116.063C578.131 112.187 577.957 107.809 579.33 103.809C580.076 101.522 581.54 99.2483 583.815 98.5336C586.744 97.624 589.853 99.7161 591.524 102.341C593.194 104.966 593.798 108.071 595.044 110.904C594.988 110.056 595.111 109.205 595.406 108.409C595.7 107.613 596.16 106.89 596.754 106.288C597.348 105.687 598.062 105.22 598.848 104.92C599.635 104.621 600.476 104.494 601.314 104.55C602.489 104.767 603.593 105.272 604.532 106.019C605.47 106.766 606.213 107.734 606.698 108.838C607.639 111.064 608.078 113.474 607.983 115.894C607.983 122.754 607.263 129.16 603.589 135.904C602.238 138.603 599.984 140.73 597.229 141.908C592.462 143.688 589.519 145.039 584.38 145.286C579.502 145.618 574.632 144.541 570.336 142.181C574.346 137.051 576.84 130.88 577.532 124.379Z" fill="#E0A23C"/>
<path d="M599.721 141.635C596.405 143.986 592.589 145.517 588.581 146.105C587.971 146.231 587.339 146.2 586.744 146.014C586.447 145.912 586.196 145.704 586.04 145.429C585.884 145.154 585.833 144.83 585.896 144.519C586.103 144.066 586.476 143.712 586.937 143.532C588.862 142.503 590.934 141.784 593.078 141.401C589.423 142.503 585.518 142.416 581.913 141.154C581.168 140.894 580.345 140.439 580.256 139.66C580.14 138.581 581.476 137.983 582.543 137.827C586.123 137.27 589.781 137.514 593.258 138.542C590.385 136.483 588.037 133.762 586.41 130.603C586.121 130.209 585.922 129.755 585.829 129.274C585.735 128.793 585.75 128.297 585.87 127.822C586.117 127.374 586.502 127.02 586.965 126.814C587.429 126.608 587.947 126.56 588.44 126.679C589.42 126.981 590.306 127.537 591.01 128.29C593.589 130.686 595.759 133.496 597.434 136.606C596.036 133.428 595.414 129.956 595.623 126.484C595.636 125.582 595.846 124.694 596.239 123.885C596.448 123.49 596.759 123.16 597.139 122.931C597.52 122.702 597.955 122.583 598.398 122.586C599.824 122.702 600.569 124.34 600.903 125.756C601.619 128.774 601.857 131.888 601.61 134.982C601.938 132.015 602.879 129.15 604.372 126.575C604.835 125.782 605.657 124.898 606.518 125.275C607.623 129.316 605.644 133.487 603.717 137.191C602.764 138.98 601.392 140.506 599.721 141.635Z" fill="#25405C"/>
<path d="M598.886 141.297C600.655 145.819 603.08 150.05 606.081 153.849C615.075 166.271 625.354 177.849 637.522 187.205C649.689 196.56 663.643 203.642 678.637 206.579C686.923 207.993 695.303 208.766 703.705 208.892" stroke="#25405C" stroke-width="1.44" stroke-miterlimit="10"/>
<path d="M600.145 143.402C600.405 143.222 600.631 142.998 600.813 142.739C601.041 142.362 601.206 141.949 601.302 141.518C601.389 141.31 601.427 141.084 601.413 140.859C601.4 140.634 601.335 140.414 601.225 140.218C601.033 140.037 600.791 139.919 600.531 139.88C599.591 139.718 598.625 139.887 597.794 140.361C596.963 140.834 596.319 141.582 595.97 142.479C595.032 144.987 599.04 144.233 600.145 143.402Z" fill="#25405C"/>
<path d="M185.739 90.2041C185.803 90.425 185.88 90.6329 185.945 90.8538C186.716 93.7515 186.651 97.3508 184.339 99.183C181.512 101.496 177.002 99.7027 175.023 96.5842C175.763 97.4266 176.315 98.4189 176.645 99.4947C176.975 100.571 177.073 101.705 176.935 102.823C176.796 103.94 176.423 105.015 175.84 105.975C175.258 106.935 174.48 107.758 173.557 108.389C172.635 109.021 171.59 109.446 170.493 109.636C169.395 109.826 168.27 109.778 167.192 109.493C166.115 109.208 165.11 108.694 164.245 107.985C163.379 107.276 162.674 106.388 162.175 105.381C163.997 102.741 166.129 100.332 168.522 98.2084C173.403 93.9573 179.37 91.1832 185.739 90.2041Z" fill="#E0A23C"/>
<path d="M168.471 98.2343C166.077 100.358 163.946 102.767 162.124 105.407C161.656 104.567 161.347 103.646 161.211 102.691C159.828 106.688 157 110.007 153.297 111.982C151.202 113.138 148.594 113.788 146.448 112.736C143.699 111.371 142.838 107.694 143.403 104.653C143.968 101.613 145.626 98.884 146.628 95.9604C146.098 96.6267 145.432 97.1701 144.676 97.5539C143.92 97.9377 143.091 98.1528 142.246 98.1848C141.401 98.2169 140.558 98.065 139.776 97.7395C138.994 97.4141 138.29 96.9226 137.711 96.2982C136.999 95.329 136.533 94.1977 136.354 93.0038C136.174 91.8099 136.288 90.5898 136.683 89.4504C137.503 87.1692 138.821 85.104 140.538 83.4082C145.138 78.3535 150.033 74.1954 157.241 71.8305C160.048 70.7844 163.132 70.7844 165.94 71.8305C170.629 73.8186 173.726 74.8971 177.606 78.2236C181.391 81.357 184.22 85.511 185.765 90.204C179.366 91.1765 173.371 93.9606 168.471 98.2343Z" fill="#E0A23C"/>
<path d="M163.884 70.3365C167.893 70.9083 171.714 72.4262 175.036 74.7674C175.57 75.0794 176.013 75.5274 176.321 76.0668C176.465 76.3458 176.504 76.6682 176.431 76.9741C176.358 77.28 176.177 77.5486 175.923 77.7301C175.7 77.8266 175.459 77.8763 175.216 77.8763C174.973 77.8763 174.733 77.8266 174.51 77.7301C172.404 77.152 170.401 76.2444 168.573 75.0403C171.988 76.7649 174.783 79.5277 176.565 82.9407C176.925 83.6423 177.233 84.5389 176.758 85.1756C176.116 86.0462 174.754 85.5525 173.854 84.9417C170.87 82.863 168.367 80.1543 166.518 77.0024C167.228 80.4897 167.104 84.0981 166.158 87.5275C166.103 88.0154 165.94 88.4845 165.682 88.9005C165.424 89.3165 165.078 89.6687 164.668 89.9314C164.175 90.0946 163.642 90.0874 163.154 89.911C162.665 89.7346 162.249 89.3989 161.969 88.9569C161.444 88.0495 161.16 87.0197 161.147 85.9683C160.869 82.4258 161.168 78.8612 162.034 75.4171C160.915 78.7063 159.024 81.6716 156.522 84.0581C155.91 84.7109 155.158 85.2132 154.324 85.5265C153.904 85.6747 153.452 85.7034 153.017 85.6094C152.582 85.5155 152.181 85.3025 151.857 84.9937C150.894 83.9282 151.459 82.213 152.179 80.9526C153.69 78.2464 155.62 75.8028 157.896 73.7149C155.65 75.6593 153.023 77.1027 150.187 77.951C149.313 78.2238 148.106 78.2888 147.72 77.4572C149.635 73.7409 153.9 72.0647 157.806 70.6873C159.77 70.0498 161.861 69.929 163.884 70.3365Z" fill="#25405C"/>
<path d="M164.295 71.1289C166.051 66.6024 167.138 61.8387 167.52 56.9914C169.318 41.6845 169.601 26.1046 167.031 10.9146C164.462 -4.27535 159.065 -19.1405 150.123 -31.6148C145.028 -38.3612 139.445 -44.7155 133.419 -50.625" stroke="#25405C" stroke-width="1.44" stroke-miterlimit="10"/>
<path d="M164.796 68.7249C164.485 68.6731 164.168 68.6731 163.858 68.7249C163.439 68.8522 163.041 69.0405 162.676 69.2837C162.277 69.5306 161.828 69.8554 161.815 70.3362C161.823 70.6046 161.923 70.8618 162.098 71.0639C162.673 71.8482 163.5 72.4064 164.437 72.6433C165.375 72.8802 166.364 72.7813 167.237 72.3633C169.601 71.1028 166.132 68.8679 164.796 68.7249Z" fill="#25405C"/>
<path d="M278.301 612.355L278.93 612.108C281.641 610.874 284.327 608.574 284.314 605.611C284.314 601.934 280.048 599.53 276.437 599.933C277.536 599.951 278.625 599.735 279.635 599.299C280.645 598.864 281.553 598.218 282.3 597.403C283.047 596.589 283.617 595.625 283.971 594.574C284.325 593.523 284.457 592.408 284.357 591.302C284.257 590.196 283.929 589.123 283.392 588.154C282.855 587.185 282.123 586.341 281.243 585.677C280.363 585.013 279.354 584.544 278.282 584.3C277.211 584.057 276.101 584.044 275.024 584.262C274.147 587.359 273.65 590.554 273.547 593.774C273.366 600.297 275.014 606.739 278.301 612.355Z" fill="#E0A23C"/>
<path d="M273.547 593.748C273.65 590.529 274.147 587.334 275.024 584.237C274.081 584.396 273.178 584.741 272.365 585.25C274.548 581.635 275.301 577.319 274.472 573.166C274.022 570.801 272.891 568.345 270.72 567.332C267.932 566.032 264.578 567.682 262.613 570.06C260.647 572.438 259.593 575.44 257.974 578.078C258.153 577.241 258.152 576.375 257.97 575.539C257.788 574.703 257.43 573.917 256.92 573.233C256.411 572.55 255.761 571.986 255.016 571.58C254.271 571.173 253.448 570.934 252.603 570.879C251.411 570.933 250.249 571.283 249.221 571.897C248.193 572.511 247.329 573.37 246.706 574.4C245.473 576.474 244.713 578.801 244.483 581.209C243.52 588.005 243.43 594.463 246.192 601.636C247.172 604.495 249.12 606.911 251.691 608.458C256.188 610.862 258.976 612.603 263.974 613.538C268.765 614.52 273.731 614.11 278.301 612.356C275.01 606.732 273.362 600.281 273.547 593.748Z" fill="#E0A23C"/>
<path d="M249.262 607.808C252.234 610.588 255.813 612.618 259.708 613.733C260.291 613.952 260.922 614.006 261.533 613.889C261.83 613.831 262.097 613.669 262.287 613.431C262.478 613.194 262.579 612.896 262.574 612.59C262.434 612.107 262.11 611.701 261.674 611.459C259.898 610.183 257.939 609.189 255.867 608.51C259.339 610.114 263.224 610.569 266.968 609.809C267.739 609.653 268.612 609.315 268.805 608.51C269.062 607.457 267.829 606.69 266.788 606.392C263.312 605.356 259.655 605.103 256.072 605.651C259.192 603.999 261.878 601.621 263.91 598.712C264.244 598.36 264.498 597.937 264.653 597.475C264.809 597.012 264.862 596.521 264.809 596.035C264.626 595.544 264.284 595.129 263.838 594.858C263.393 594.587 262.871 594.475 262.355 594.541C261.319 594.711 260.347 595.16 259.541 595.84C256.652 597.856 254.112 600.341 252.025 603.195C253.833 600.236 254.909 596.88 255.16 593.411C255.257 592.535 255.165 591.648 254.89 590.812C254.739 590.39 254.476 590.018 254.129 589.738C253.782 589.459 253.365 589.281 252.924 589.227C251.485 589.136 250.534 590.669 250.02 592.02C248.91 594.931 248.26 598.001 248.093 601.116C248.17 598.131 247.618 595.163 246.474 592.41C246.127 591.552 245.421 590.565 244.534 590.799C242.89 594.697 244.303 599.05 245.729 602.974C246.495 604.855 247.709 606.516 249.262 607.808Z" fill="#25405C"/>
<path d="M250.136 607.613C247.784 611.855 244.822 615.722 241.348 619.087C230.761 630.17 219.017 640.254 205.77 647.881C192.523 655.509 177.722 660.654 162.509 661.538C154.112 661.807 145.707 661.437 137.364 660.433" stroke="#25405C" stroke-width="1.44" stroke-miterlimit="10"/>
<path d="M248.608 609.536C248.384 609.319 248.193 609.069 248.042 608.795C247.859 608.384 247.746 607.945 247.708 607.496C247.649 607.274 247.642 607.041 247.686 606.816C247.731 606.59 247.826 606.379 247.965 606.197C248.182 606.038 248.443 605.951 248.71 605.95C249.663 605.921 250.596 606.222 251.355 606.804C252.115 607.385 252.655 608.212 252.886 609.146C253.464 611.797 249.597 610.472 248.608 609.536Z" fill="#25405C"/>
<path d="M168.381 347.602L173.237 334.167L159.412 302.591L130.76 296.523L98.934 321.406C98.934 321.406 98.4586 323.2 97.6491 326.019L93.165 321.913C71.4658 338.969 48.7212 354.619 25.0674 368.77C-8.24908 388.521 -48.0412 405.53 -66.2991 417.38C-71.4385 420.681 -78.2611 425.359 -86.0988 430.751C-86.0988 430.751 -88.3344 432.206 -91.9963 434.805L-93.1784 435.624C-114.546 450.931 -176.052 499.152 -155.623 533.729C-118.683 596.23 -19.5045 502.868 -19.5045 502.868C18.0392 465.276 59.2832 420.681 87.7814 389.3C97.2287 378.692 109.157 370.65 122.473 365.911C127.137 364.313 140.204 365.404 145.292 366.145C162.226 368.679 168.381 347.602 168.381 347.602Z" fill="#E89E9E"/>
<path d="M91.8545 323.148C91.8545 323.148 145.035 260.205 172.955 249.706C172.955 249.706 180.78 253.305 177.054 263.076C173.328 272.848 155.841 281.268 152.641 290.442C149.442 299.616 156.02 300.122 164.205 300.499C172.39 300.876 238.072 284.906 242.916 289.246C247.759 293.586 240.346 298.043 235.438 300.161C230.53 302.279 194.862 313.038 194.862 313.038C194.862 313.038 257.923 298.069 259.105 309.777C259.876 317.365 201.749 329.463 201.749 329.463C201.749 329.463 252.256 317.002 251.73 326.747C251.267 335.063 209.419 342.21 209.419 342.21C209.419 342.21 235.63 336.545 235.887 342.34C236.221 349.694 199.641 358.206 188.759 361.701C177.876 365.196 152.783 368.614 143.93 365.872C135.077 363.13 128.769 360.402 122.498 364.053" fill="#E89E9E"/>
<path d="M60.1183 339.144C60.1183 339.144 93.242 376.086 98.253 386.234C98.253 386.234 26.6348 498.749 -96.4162 561.549L-192.37 555.273L-124.632 409.922C-124.632 409.922 28.3951 355.178 60.1183 339.144Z" fill="#558283"/>
<path d="M152.628 290.442C152.182 292.761 151.907 295.111 151.806 297.472C151.673 299.814 151.707 302.164 151.909 304.501C152.14 306.814 152.461 309.218 152.526 311.609C152.598 314.009 152.491 316.411 152.204 318.795C151.685 323.61 150.095 328.243 147.553 332.348C146.886 333.346 146.152 334.297 145.356 335.193C144.958 335.635 144.572 336.103 144.148 336.493L142.863 337.675C141.949 338.436 140.983 339.131 139.972 339.754C138.97 340.378 137.878 340.846 136.837 341.378C140.901 339.085 144.309 335.768 146.731 331.75C147.882 329.744 148.804 327.612 149.48 325.396C149.879 324.304 150.084 323.148 150.38 322.03C150.675 320.913 150.83 319.743 150.932 318.587C151.433 313.914 151.433 309.2 150.932 304.527C150.706 299.769 151.279 295.006 152.628 290.442Z" fill="#A55D5D"/>
<path d="M66.1702 326.149C66.1702 326.149 108.969 370.173 111.397 377.762C113.826 385.35 105.474 388.053 96.6342 388.664C87.7944 389.274 54.3109 343.808 54.555 339.143C54.7992 334.479 59.8744 326.448 66.1702 326.149Z" fill="#6D9B9B"/>
<path d="M557.115 168.792C528.257 170.182 420.625 195.196 420.625 195.196C420.625 195.196 438.523 227.135 438.33 247.484C438.33 247.484 538.934 244.43 550.614 249.108C552.451 250.55 598.488 238.362 632.472 213.141C597.241 177.095 588.312 167.311 557.115 168.792Z" fill="#FBC8C7"/>
<path d="M476.683 205.786C459.646 191.129 423.284 194.091 423.284 194.091C423.284 194.091 422.834 194.819 388.593 201.771C382.978 202.914 371.003 203.2 348.569 207.527C336.016 209.957 319.737 214.453 306.901 220.794C296.622 225.875 295.479 232.956 298.73 236.049C292.164 239.7 292.395 249.433 297.792 251.408C295.312 252.902 292.537 258.944 295.813 262.856C299.783 267.637 305.282 266.273 309.15 264.402C309.15 264.402 306.863 269.288 310.576 272.198C314.289 275.109 317.424 275.889 330.273 270.106C343.122 264.324 354.416 262.414 367.316 264.168C366.031 264.415 368.498 270.418 367.161 270.795L367.508 287.05C371.98 286.596 371.556 286.44 377.286 285.595C392.242 283.399 401.429 275.837 410.847 259.438C418.903 245.418 443.405 249.563 461.817 246.444C461.817 246.392 493.72 220.443 476.683 205.786Z" fill="#FBC8C7"/>
<path d="M298.729 236.075C304.473 240.753 312.657 236.387 318.529 234.048C324.89 231.426 331.458 229.349 338.162 227.837C334.716 228.169 331.304 228.791 327.96 229.695C321.202 231.15 315.111 234.828 308.52 236.738C305.334 237.556 301.582 238.219 298.729 236.075Z" fill="#FB929C"/>
<path d="M297.792 251.421C304.872 255.501 312.452 249.628 319.121 247.393C326.046 244.651 333.049 242.078 340.205 240.038C332.844 241.378 325.641 243.485 318.71 246.327C311.951 248.653 305.167 254.552 297.792 251.421Z" fill="#FB929C"/>
<path d="M309.15 264.428C319.313 261.075 334.05 255.579 344.162 252.59C332.02 254.604 320.264 259.087 309.15 264.428Z" fill="#FB929C"/>
<path d="M440.475 252.993C440.475 252.993 430.068 196.729 428.167 187.646C428.167 187.646 603.858 144.636 680.834 153.979L668.808 245.249C668.808 245.249 462.742 257.203 440.475 252.993Z" fill="#E37F4F"/>
<path d="M223.879 454.889L458.41 396.411L414.781 217.45L180.25 275.928L223.879 454.889Z" fill="#E0A23C"/>
<path d="M345.578 407.762L435.199 385.416L424.265 340.565L334.644 362.911L345.578 407.762Z" fill="white"/>
<path d="M342.889 369.984L398.752 356.055L398.06 353.216L342.197 367.145L342.889 369.984Z" fill="#EFDE9D"/>
<path d="M344.699 377.365L400.562 363.436L399.87 360.597L344.007 374.526L344.699 377.365Z" fill="#EFDE9D"/>
<path d="M346.523 384.857L385.52 375.133L384.827 372.295L345.831 382.018L346.523 384.857Z" fill="#EFDE9D"/>
<path d="M284.537 336.936L350.455 320.5L330.46 238.482L264.542 254.918L284.537 336.936Z" fill="#EFDE9D"/>
<path d="M180.24 275.954L149.48 256.424L188.437 416.211L223.874 454.907L180.24 275.954Z" fill="#C68424"/>
<path d="M414.779 217.468L377.094 199.666L149.48 256.424L180.24 275.954L414.779 217.468Z" fill="#DB9837"/>
<path d="M330.466 238.492L294.4 220.287L234.294 235.269L264.552 254.929L330.466 238.492Z" fill="#EFDE9D"/>
<path d="M653.57 402.398C625.161 407.7 514.715 408.129 514.715 408.129C514.715 408.129 524.994 372.915 520.176 353.138C520.176 353.138 618.84 332.945 629.145 325.695C630.622 323.876 678.188 325.136 716.952 341.872C690.779 385.077 684.278 396.655 653.57 402.398Z" fill="#FBC8C7"/>
<path d="M566.906 384.909C553.62 403.1 517.541 408.584 517.541 408.584C517.541 408.584 516.938 407.973 482.041 409.09C476.323 409.285 464.605 411.754 441.786 412.703C429.015 413.236 412.131 412.599 398.216 409.376C387.064 406.777 384.366 400.177 386.82 396.382C379.599 394.355 377.633 384.818 382.451 381.647C379.702 380.763 375.641 375.527 377.954 370.953C380.742 365.392 386.396 365.444 390.584 366.379C390.584 366.379 387.257 362.156 390.225 358.505C393.193 354.853 396.071 353.307 409.87 355.997C423.67 358.687 435.118 357.933 447.285 353.255C446 353.255 447.028 346.901 445.641 346.836L442.313 330.931C446.771 330.334 446.386 330.594 452.168 330.087C467.226 328.787 477.865 333.985 490.714 347.837C501.712 359.635 524.647 349.942 543.277 348.772C543.303 348.798 580.204 366.717 566.906 384.909Z" fill="#FBC8C7"/>
<path d="M386.833 396.408C391.368 390.522 400.311 392.887 406.555 393.809C413.354 394.894 420.23 395.407 427.113 395.343C423.681 395.806 420.218 395.984 416.757 395.875C409.845 396.005 403.073 393.848 396.199 393.497C392.897 393.497 389.107 393.653 386.82 396.395L386.833 396.408Z" fill="#FB929C"/>
<path d="M382.451 381.673C388.426 376.085 397.137 380.049 404.127 380.685C411.489 381.764 418.877 382.647 426.316 382.985C418.845 383.38 411.353 382.992 403.96 381.829C396.854 381.114 388.927 376.943 382.451 381.673Z" fill="#FB929C"/>
<path d="M390.597 366.431C401.236 367.354 416.834 369.329 427.357 369.888C415.01 370.693 402.598 369.03 390.597 366.431Z" fill="#FB929C"/>
<path d="M521.036 347.291C521.036 347.291 523.606 404.464 523.76 413.755C523.76 413.755 704.514 415.159 777.366 388.339L745.103 302.228C745.103 302.228 541.761 338.052 521.036 347.291Z" fill="#E37F4F"/>
<path d="M444.562 341.496C444.562 341.496 450.164 348.46 447.337 353.281L444.562 341.496Z" fill="#FB929C"/>
<path d="M221.715 468.811L226.572 455.375L212.747 423.8L184.094 417.731L152.23 442.615C152.23 442.615 151.754 444.421 150.945 447.228L146.474 443.096C124.773 460.15 102.029 475.8 78.376 489.952C45.1239 509.664 5.33172 526.699 -12.9261 538.55C-18.0656 541.863 -24.901 546.541 -32.7259 551.921C-32.7259 551.921 -34.9615 553.376 -38.6234 555.975L-39.8054 556.793C-61.1598 572.1 -122.666 620.321 -102.237 654.911C-65.3356 717.386 33.8556 624.063 33.8556 624.063C71.3992 586.459 112.63 541.863 141.141 510.496C150.587 499.885 162.515 491.843 175.833 487.106C180.497 485.495 193.564 486.6 198.639 487.34C215.548 489.874 221.715 468.811 221.715 468.811Z" fill="#E89E9E"/>
<path d="M145.189 444.395C145.189 444.395 198.382 381.452 226.302 370.966C226.302 370.966 234.114 374.552 230.401 384.337C226.688 394.121 209.188 402.528 205.989 411.702C202.789 420.876 209.381 421.383 217.552 421.759C225.724 422.136 280.51 408.947 286.768 410.87C295.466 413.56 292.935 422.331 288.053 424.436C283.17 426.541 248.222 434.286 248.222 434.286C248.222 434.286 297.419 418.693 298.935 434.533C299.848 444.148 255.109 450.71 255.109 450.71C255.109 450.71 300.927 436.547 301.826 450.307C302.379 458.623 262.779 463.47 262.779 463.47C262.779 463.47 287.641 458.026 289.248 463.6C293.308 477.647 255.584 481.246 244.689 484.728C233.793 488.211 206.143 489.926 197.29 487.132C188.437 484.339 182.129 481.649 175.859 485.3" fill="#E89E9E"/>
<path d="M113.453 460.378C113.453 460.378 146.564 497.32 151.587 507.468C151.587 507.468 79.9693 619.983 -43.0818 682.77L-139.035 676.494L-71.2973 531.143C-71.2973 531.143 81.7296 476.4 113.453 460.378Z" fill="#558283"/>
<path d="M209.895 420.928C208.945 420.794 207.985 420.764 207.029 420.837C206.078 420.837 205.141 421.006 204.215 421.123C202.355 421.435 200.521 421.891 198.729 422.487C196.93 423.02 195.183 423.787 193.41 424.488L190.84 425.645C189.966 426.048 189.105 426.489 188.206 426.853C188.951 426.229 189.748 425.671 190.519 425.073C191.29 424.475 192.163 424.02 193.011 423.54C194.724 422.589 196.522 421.805 198.382 421.201C200.256 420.588 202.198 420.213 204.164 420.083C206.112 419.933 208.07 420.221 209.895 420.928Z" fill="#A55D5D"/>
<path d="M222.049 437.171C227.844 436.079 233.613 435.234 239.459 434.416C245.305 433.597 251.023 432.818 256.959 432.324C251.273 433.88 245.492 435.053 239.652 435.832C233.821 436.681 227.94 437.128 222.049 437.171Z" fill="#A55D5D"/>
<path d="M226.572 455.375C233.641 453.318 240.812 451.635 248.055 450.333C255.276 448.961 262.569 448.002 269.897 447.461C262.702 449.073 255.494 450.398 248.286 451.749C241.078 453.101 233.844 454.361 226.572 455.375Z" fill="#A55D5D"/>
<path d="M273.161 461.638C267.836 463.281 262.433 464.651 256.972 465.744C254.235 466.29 251.498 466.81 248.749 467.239C245.999 467.667 243.211 468.044 240.423 468.226C243.121 467.498 245.819 466.771 248.53 466.147C251.241 465.523 253.965 464.913 256.689 464.341C262.111 463.249 267.585 462.236 273.161 461.638Z" fill="#A55D5D"/>
<path d="M120.777 450.203C125.453 451.944 160.196 496.982 161.404 502.556C162.612 508.13 151.009 511.652 147.617 510.352C144.225 509.053 108.442 461.677 108.442 459.234C108.442 456.791 113.568 447.513 120.777 450.203Z" fill="#6D9B9B"/>
<path d="M534.386 53.8468L549.445 80.2116H579.536L594.595 53.8468L579.536 27.4819H549.445L534.386 53.8468ZM552.58 53.8468L558.542 43.4516H570.478L576.44 53.8468L570.478 64.242H558.58L552.58 53.8468Z" fill="white"/>
<path d="M-16.9092 199.341L-1.85062 225.706H28.2665L43.2994 199.341L28.2665 172.976H-1.85062L-16.9092 199.341ZM1.28444 199.341L7.2462 188.946H19.144L25.1058 199.341L19.144 209.736H7.2462L1.28444 199.341Z" fill="white"/>
<path d="M184.673 529.947C190.683 529.947 195.556 525.02 195.556 518.941C195.556 512.863 190.683 507.936 184.673 507.936C178.662 507.936 173.79 512.863 173.79 518.941C173.79 525.02 178.662 529.947 184.673 529.947Z" stroke="#121721" stroke-miterlimit="10"/>
<path d="M414.108 64.6996C420.031 63.6639 424.002 57.9689 422.978 51.9794C421.954 45.9898 416.322 41.9739 410.4 43.0096C404.477 44.0452 400.506 49.7402 401.53 55.7298C402.555 61.7193 408.186 65.7352 414.108 64.6996Z" stroke="#121721" stroke-miterlimit="10"/>
<path d="M534.399 632.47C540.409 632.47 545.282 627.543 545.282 621.464C545.282 615.386 540.409 610.458 534.399 610.458C528.389 610.458 523.516 615.386 523.516 621.464C523.516 627.543 528.389 632.47 534.399 632.47Z" stroke="#121721" stroke-miterlimit="10"/>
<path d="M385.047 625.09C388.162 625.09 390.687 622.536 390.687 619.386C390.687 616.235 388.162 613.681 385.047 613.681C381.932 613.681 379.406 616.235 379.406 619.386C379.406 622.536 381.932 625.09 385.047 625.09Z" fill="#E37E4B"/>
<path d="M558.837 167.259C558.834 168.39 559.164 169.497 559.783 170.438C560.403 171.38 561.285 172.115 562.318 172.55C563.351 172.985 564.488 173.1 565.585 172.881C566.683 172.662 567.691 172.118 568.483 171.319C569.275 170.52 569.815 169.501 570.034 168.392C570.253 167.282 570.142 166.132 569.715 165.087C569.287 164.041 568.562 163.147 567.633 162.519C566.703 161.89 565.609 161.554 564.49 161.554C562.993 161.554 561.557 162.155 560.497 163.224C559.437 164.294 558.84 165.744 558.837 167.259Z" fill="#E37E4B"/>
<path d="M42.5287 51.4429C45.6439 51.4429 48.1693 48.889 48.1693 45.7385C48.1693 42.5881 45.6439 40.0342 42.5287 40.0342C39.4136 40.0342 36.8882 42.5881 36.8882 45.7385C36.8882 48.889 39.4136 51.4429 42.5287 51.4429Z" fill="#E37E4B"/>
<path d="M-12.7591 112.229L0.385059 95.4796C-7.01497 89.7738 -13.2158 82.6332 -17.8548 74.4753C-22.4939 66.3174 -25.478 57.3059 -26.6327 47.9679C-27.7874 38.6299 -27.0894 29.1528 -24.5797 20.0908C-22.0699 11.0288 -17.7988 2.56379 -12.016 -4.80914C-6.23318 -12.1821 0.945179 -18.315 9.09931 -22.8491C17.2534 -27.3833 26.2197 -30.2278 35.4736 -31.2162C44.7276 -32.2046 54.0836 -31.317 62.9944 -28.6055C71.9052 -25.894 80.192 -21.4129 87.3701 -15.4243L100.566 -32.1736C91.1995 -39.7902 80.4363 -45.4583 68.8956 -48.8517C57.3549 -52.2451 45.2645 -53.2968 33.3203 -51.9463C21.3762 -50.5957 9.81401 -46.8695 -0.700649 -40.9823C-11.2153 -35.095 -20.4749 -27.1628 -27.9464 -17.6423C-35.418 -8.12181 -40.9539 2.79907 -44.2358 14.4918C-47.5176 26.1845 -48.4804 38.4181 -47.0689 50.4886C-45.6573 62.5591 -41.8993 74.2281 -36.011 84.8241C-30.1227 95.42 -22.2205 104.734 -12.7591 112.229Z" fill="white"/>
<path d="M-12.7589 112.229C1.36232 123.562 18.4893 130.405 36.4562 131.893C54.4231 133.382 72.423 129.449 88.1798 120.593C103.937 111.736 116.743 98.3524 124.979 82.1351C133.214 65.9178 136.51 47.5949 134.449 29.4834C132.388 11.3718 125.063 -5.71503 113.4 -19.6164C101.737 -33.5178 86.2596 -43.6093 68.9254 -48.615C51.5911 -53.6207 33.1783 -53.3157 16.0155 -47.7385C-1.14739 -42.1614 -16.2896 -31.5625 -27.4962 -17.2823C-34.9376 -7.80002 -40.4593 3.07175 -43.746 14.7122C-47.0326 26.3527 -48.0199 38.5339 -46.6514 50.5602C-45.2829 62.5866 -41.5854 74.2226 -35.7701 84.8037C-29.9548 95.3849 -22.1356 104.704 -12.7589 112.229ZM0.385234 95.4797C-10.4588 86.7752 -18.507 75.0141 -22.7415 61.6837C-26.976 48.3533 -27.2067 34.0524 -23.4044 20.5894C-19.6021 7.12639 -11.9375 -4.89396 -1.38004 -13.9516C9.17746 -23.0092 22.1537 -28.6973 35.9078 -30.2966C49.6619 -31.8958 63.5761 -29.3344 75.8907 -22.9361C88.2053 -16.5379 98.3673 -6.59034 105.092 5.64868C111.816 17.8877 114.8 31.8684 113.668 45.8229C112.535 59.7773 107.336 73.0787 98.7285 84.045C87.1844 98.7466 70.3396 108.21 51.8979 110.354C33.4561 112.499 14.9272 107.148 0.385234 95.4797Z" stroke="#8696A3" stroke-miterlimit="10"/>
<path d="M446.746 680.211L467.085 674.389C464.489 665.427 463.671 656.033 464.68 646.749C465.689 637.466 468.505 628.476 472.965 620.298C477.425 612.119 483.441 604.915 490.666 599.098C497.891 593.282 506.183 588.969 515.064 586.407C523.945 583.846 533.239 583.087 542.411 584.175C551.584 585.262 560.452 588.175 568.507 592.744C576.561 597.313 583.641 603.449 589.341 610.798C595.04 618.147 599.244 626.563 601.713 635.563L622.052 629.69C615.223 606.42 599.593 586.814 578.557 575.127C557.521 563.441 532.775 560.617 509.693 567.269C486.611 573.921 467.054 589.512 455.269 610.657C443.484 631.803 440.421 656.796 446.746 680.211Z" fill="white"/>
<path d="M446.746 680.21C451.691 697.742 461.666 713.397 475.409 725.196C489.152 736.994 506.046 744.407 523.955 746.495C541.863 748.584 559.982 745.255 576.02 736.93C592.058 728.604 605.294 715.657 614.056 699.723C622.817 683.79 626.71 665.587 625.242 647.417C623.774 629.246 617.012 611.923 605.809 597.64C594.606 583.356 579.467 572.753 562.306 567.171C545.144 561.588 526.732 561.278 509.396 566.279C486.16 573.003 466.512 588.777 454.766 610.138C443.02 631.499 440.136 656.7 446.746 680.21ZM467.085 674.389C463.288 660.924 463.524 646.624 467.764 633.295C472.004 619.966 480.057 608.208 490.904 599.508C501.751 590.808 514.906 585.556 528.705 584.417C542.504 583.278 556.327 586.302 568.426 593.108C580.525 599.914 590.357 610.195 596.678 622.652C602.999 635.109 605.525 649.182 603.938 663.091C602.35 677 596.72 690.12 587.759 700.793C578.798 711.466 566.909 719.212 553.595 723.051C535.742 728.196 516.6 725.96 500.377 716.834C484.155 707.709 472.18 692.441 467.085 674.389Z" stroke="#8696A3" stroke-miterlimit="10"/>
</g>
<path d="M462.742 432.96C462.742 432.96 456.691 539.797 345.974 527.492L354.519 491.654L290.867 519.644L333.55 586.03L341.516 554.74C341.516 554.74 459.428 565.382 462.742 432.96Z" fill="#E0A23C"/>
<path d="M180.112 249.03C180.112 249.03 168.972 142.622 280.202 136.632L277.53 173.379L335.85 135.332L283.081 76.7944L280.228 108.981C280.228 108.981 162.175 117.83 180.112 249.03Z" fill="#558283"/>
</svg>
