<svg width="55" height="54" viewBox="0 0 55 54" fill="none" xmlns="http://www.w3.org/2000/svg">
  <rect x="0.254913" y="-0.000244141" width="54.0005" height="54.0005" rx="27.0003" fill="white"/>
  <path d="M24.0235 11.2888C17.8108 12.5034 12.8044 17.5054 11.5794 23.7094C9.26686 35.4163 19.8109 44.1433 27.7548 42.91C30.3299 42.5094 31.5924 39.4918 30.4111 37.1692C28.9673 34.327 31.0299 31.009 34.2175 31.009H39.1988C41.4364 31.009 43.2489 29.156 43.2552 26.921C43.2239 17.0547 34.2612 9.29179 24.0235 11.2888ZM17.2546 31.009C16.1483 31.009 15.2545 30.1138 15.2545 29.0057C15.2545 27.8976 16.1483 27.0024 17.2546 27.0024C18.3608 27.0024 19.2546 27.8976 19.2546 29.0057C19.2546 30.1138 18.3608 31.009 17.2546 31.009ZM19.2546 22.9958C18.1483 22.9958 17.2546 22.1005 17.2546 20.9924C17.2546 19.8843 18.1483 18.9891 19.2546 18.9891C20.3609 18.9891 21.2546 19.8843 21.2546 20.9924C21.2546 22.1005 20.3609 22.9958 19.2546 22.9958ZM27.2548 18.9891C26.1485 18.9891 25.2547 18.0939 25.2547 16.9858C25.2547 15.8777 26.1485 14.9825 27.2548 14.9825C28.3611 14.9825 29.2548 15.8777 29.2548 16.9858C29.2548 18.0939 28.3611 18.9891 27.2548 18.9891ZM35.255 22.9958C34.1487 22.9958 33.2549 22.1005 33.2549 20.9924C33.2549 19.8843 34.1487 18.9891 35.255 18.9891C36.3613 18.9891 37.255 19.8843 37.255 20.9924C37.255 22.1005 36.3613 22.9958 35.255 22.9958Z" fill="#72A652"/>
</svg>
