<svg width="20" height="16" viewBox="0 0 28 24" fill="none" xmlns="http://www.w3.org/2000/svg">
  <path d="M24.5872 1.73106C21.5638 -0.871803 16.8927 -0.480838 14 2.53441C11.1073 -0.480838 6.43618 -0.877159 3.41275 1.73106C-0.520849 5.12121 0.0545445 10.6483 2.85828 13.5778L12.0332 23.1484C12.5563 23.6947 13.2572 24 14 24C14.748 24 15.4437 23.7001 15.9668 23.1538L25.1417 13.5832C27.9402 10.6536 28.5261 5.12656 24.5872 1.73106ZM23.3528 11.773L14.1778 21.3436C14.0523 21.4721 13.9477 21.4721 13.8221 21.3436L4.64723 11.773C2.73797 9.78065 2.35089 6.01025 5.02908 3.70195C7.06389 1.95064 10.2024 2.21307 12.1692 4.2643L14 6.17628L15.8308 4.2643C17.8081 2.20236 20.9466 1.95064 22.9709 3.6966C25.6439 6.0049 25.2463 9.79672 23.3528 11.773Z" fill="#72A652"/>
</svg>
