<svg width="597" height="397" viewBox="0 0 597 397" fill="none" xmlns="http://www.w3.org/2000/svg">
<g clip-path="url(#clip0_2_175)">
<path d="M474.555 59.3559H556.532C556.532 59.3559 558.423 46.3659 547.833 42.9525C537.338 39.539 534.879 37.1686 530.908 32.3329C526.937 27.4972 513.038 24.0838 504.906 36.1256C498.761 45.1333 492.142 45.0384 487.603 46.1763C477.108 48.7363 474.366 53.0979 474.555 59.3559Z" fill="white"/>
<path d="M85.1911 169.534H25.6235C25.6235 169.534 24.2998 160.052 31.9585 157.587C39.6171 155.121 41.3191 153.32 44.2502 149.906C47.1813 146.398 57.2038 143.838 63.1605 152.656C67.6045 159.199 72.4266 159.104 75.7359 159.957C83.3946 161.853 85.3802 165.077 85.1911 169.534Z" fill="white"/>
<path d="M580.548 223.864C580.548 223.864 587.828 233.535 590.759 249.654C593.691 265.773 592.083 276.108 593.88 285.59C595.676 295.072 600.877 310.053 592.083 318.017C592.083 318.017 588.774 306.165 583.574 299.907C578.373 293.649 574.591 279.142 574.497 268.997C574.402 258.851 569.958 239.414 559.747 228.51L580.548 223.864Z" fill="#72A652"/>
<path d="M592.083 304.838C591.232 297.347 585.937 293.839 584.992 281.607C584.141 269.376 583.857 239.888 573.74 229.647" stroke="#EAFFDE" stroke-width="0.8164" stroke-miterlimit="10"/>
<path d="M559.652 228.699C568.162 237.802 572.606 252.783 573.929 263.402C573.362 247.852 580.548 223.958 580.548 223.958L559.652 228.699Z" fill="#58803F"/>
<path d="M580.548 223.864L561.354 223.2C558.045 223.105 555.114 224.907 553.884 227.846C549.157 239.319 537.432 268.712 532.516 290.615C526.37 318.396 501.124 358.883 494.695 386.475H523.06C523.06 386.475 539.512 357.461 547.549 321.431C555.681 285.4 574.213 228.699 580.548 223.864Z" fill="#72A652"/>
<path d="M567.594 223.864C563.434 232.871 552.277 258.282 546.793 286.159C539.985 320.957 513.794 371.779 508.027 386.381" stroke="#EAFFDE" stroke-width="0.8164" stroke-miterlimit="10"/>
<path d="M543.956 166.12C524.668 157.586 519.278 179.679 517.293 195.418C515.307 211.158 518.711 219.407 494.317 228.32C469.922 237.233 474.839 258.472 476.919 275.065C478.999 291.658 478.527 296.209 458.86 303.794C439.193 311.38 421.039 336.696 441.746 386.475H526.37C526.37 386.475 544.713 379.554 538.567 329.49C535.258 303.036 553.128 296.588 553.79 278.668C554.452 260.747 538.756 241.689 548.684 219.976C558.517 198.073 562.016 174.084 543.956 166.12Z" fill="#A2C48D"/>
<path d="M476.825 386.096L483.822 362.202L465.006 301.139C465.478 300.95 465.951 300.665 466.424 300.476L484.578 359.547L501.975 299.907L482.214 235.715C482.592 235.336 482.971 234.957 483.443 234.578L502.732 297.442L516.347 250.791L507.459 221.967C507.932 221.683 508.31 221.303 508.783 221.019L517.104 248.137L528.828 207.934L520.318 180.247C520.602 179.394 520.886 178.635 521.169 177.782L529.585 205.279L539.229 172.283L540.742 172.852L533.461 197.789L556.532 184.799C556.626 185.367 556.626 185.936 556.626 186.6L532.799 199.969L521.453 238.655L546.698 224.622C546.509 225.38 546.32 226.044 546.131 226.803L520.791 240.836L517.86 250.886L506.798 289.003L551.615 264.161C551.804 264.73 551.899 265.204 551.993 265.773L506.136 291.184L503.583 300.096L503.677 300.381H503.488L490.913 343.238L538.472 316.879C538.378 317.543 538.283 318.206 538.189 318.87L490.251 345.419L478.243 386.38H477.487L476.825 386.096Z" fill="#EAFFDE"/>
<path d="M23.4489 242.542C23.4489 242.542 17.0193 251.171 14.4664 265.488C11.819 279.806 13.3318 289.003 11.7244 297.442C10.1171 305.88 5.57857 319.155 13.4264 326.266C13.4264 326.266 16.3575 315.741 20.9905 310.242C25.6236 304.743 28.9329 291.753 29.0274 282.84C29.122 273.832 33.0931 256.575 42.0756 246.904L23.4489 242.542Z" fill="#72A652"/>
<path d="M13.4264 314.414C14.1828 307.777 18.9104 304.648 19.6668 293.839C20.4232 282.935 20.6123 256.765 29.5947 247.758" stroke="#EAFFDE" stroke-width="0.8164" stroke-miterlimit="10"/>
<path d="M42.0756 246.809L23.5435 242.542C23.5435 242.542 27.7037 263.213 29.2166 279.806C29.8784 270.419 33.9442 255.532 42.0756 246.809Z" fill="#58803F"/>
<path d="M23.4489 242.543L40.4682 241.879C43.3993 241.784 45.9522 243.396 47.0868 245.956C51.3416 256.102 61.7423 282.271 66.0917 301.709C71.5757 326.361 94.079 362.297 99.7521 386.76H65.9972C65.9972 386.76 53.9891 364.383 48.6942 331.861C42.3592 293.744 29.122 246.809 23.4489 242.543Z" fill="#72A652"/>
<path d="M34.795 242.164C34.795 242.164 47.3704 267.006 53.5163 297.916C59.5676 328.827 82.9219 373.865 88.0277 386.95" stroke="#EAFFDE" stroke-width="0.8164" stroke-miterlimit="10"/>
<path d="M55.9747 191.247C73.0886 183.661 77.9107 203.288 79.7072 217.227C81.5037 231.165 78.478 238.56 100.13 246.43C121.877 254.3 117.433 273.169 115.637 287.96C113.746 302.657 114.219 306.734 131.711 313.466C149.203 320.198 165.277 342.67 147.028 386.855H71.8594C71.8594 386.855 55.5019 380.786 60.9859 336.222C63.8225 312.708 48.0323 307.019 47.3705 291.089C46.7086 275.16 60.6077 258.282 51.8144 238.94C43.1156 219.692 39.9009 198.358 55.9747 191.247Z" fill="#A2C48D"/>
<path d="M115.826 386.57L109.585 365.426L126.227 311.19C125.848 311.001 125.376 310.811 124.997 310.621L108.924 363.055L93.4171 310.052L110.909 252.972C110.531 252.593 110.247 252.309 109.869 251.929L92.6607 307.777L80.4635 266.342L88.3113 240.741C87.9331 240.457 87.5549 240.172 87.1767 239.888L79.8017 263.971L69.3064 228.225L76.8706 203.667C76.6815 202.909 76.3978 202.245 76.1142 201.487L68.6446 225.855L60.0404 196.556L58.7166 197.03L65.2407 219.123L44.723 207.65C44.6284 208.124 44.6284 208.693 44.6284 209.262L65.808 221.114L75.9251 255.438L53.4217 243.017C53.6108 243.68 53.7999 244.249 53.8945 244.913L76.3978 257.429L79.0453 266.342L88.9732 300.286L49.1669 278.194C49.0724 278.668 48.8832 279.142 48.7887 279.616L89.5405 302.183L91.8098 310.052L91.7152 310.242H91.8098L102.967 348.359L60.7022 324.939C60.7968 325.508 60.8913 326.077 60.8913 326.645L103.44 350.255L114.408 386.854H115.164L115.826 386.57Z" fill="#EAFFDE"/>
<path d="M369.06 197.837C398.71 168.104 398.71 119.896 369.06 90.1626C339.409 60.4291 291.337 60.4291 261.687 90.1626C232.036 119.896 232.036 168.104 261.687 197.837C291.337 227.571 339.409 227.571 369.06 197.837Z" fill="#72A652"/>
<path d="M312.134 176C312.134 171.714 312.134 167.574 312.134 163.336C310.904 163.336 309.748 163.385 308.593 163.336C306.333 163.239 304.047 163.288 301.837 162.947C298.145 162.386 295.156 160.438 292.644 157.808C292.117 157.248 291.564 156.688 291.037 156.103C290.987 156.055 291.012 155.957 290.987 155.835C292.644 155.397 294.277 154.983 295.935 154.569C296.136 154.52 296.487 154.642 296.588 154.788C298.722 157.857 301.862 158.928 305.504 158.928C307.488 158.928 309.447 158.928 311.431 158.953C312.034 158.953 312.21 158.782 312.185 158.222C312.159 155.714 312.159 153.205 312.159 150.721C312.159 150.137 311.933 149.723 311.481 149.333C308.241 146.337 305.001 143.342 301.787 140.322C300.556 139.177 299.828 137.716 299.3 136.206C297.768 131.774 294.453 129.265 289.907 128.267C287.747 127.78 285.486 127.731 283.276 127.463C282.498 127.366 282.297 127.731 282.246 128.437C281.845 133.649 281.945 138.861 282.422 144.048C282.899 149.211 284.005 154.204 286.843 158.685C289.681 163.117 293.448 166.551 298.471 168.548C300.656 169.4 302.942 169.912 305.278 170.058C305.654 170.082 306.081 170.301 306.358 170.545C308.04 172.104 309.673 173.687 311.306 175.27C311.557 175.489 311.783 175.684 312.134 176Z" fill="white"/>
<path d="M314.118 111.414C311.029 114.799 307.663 118.014 304.85 121.618C301.334 126.099 301.636 132.918 305.152 137.302C306.131 138.52 307.387 139.543 308.517 140.614C310.275 142.27 312.059 143.902 313.817 145.534C313.993 145.704 314.194 145.85 314.47 146.094C314.47 134.477 314.47 122.982 314.47 111.511C314.369 111.487 314.244 111.438 314.118 111.414Z" fill="white"/>
<path d="M316.856 175.586C316.856 171.3 316.856 167.16 316.856 162.922C318.087 162.922 319.242 162.971 320.397 162.922C322.658 162.825 324.943 162.873 327.154 162.533C330.846 161.972 333.834 160.024 336.346 157.394C336.874 156.834 337.426 156.274 337.953 155.689C338.004 155.64 337.979 155.543 338.004 155.421C336.346 154.983 334.714 154.569 333.056 154.155C332.855 154.106 332.503 154.228 332.403 154.374C330.268 157.443 327.129 158.514 323.487 158.514C321.503 158.514 319.544 158.514 317.559 158.539C316.957 158.539 316.781 158.368 316.806 157.808C316.831 155.299 316.831 152.791 316.831 150.307C316.831 149.722 317.057 149.308 317.509 148.919C320.749 145.923 323.989 142.928 327.204 139.908C328.435 138.763 329.163 137.302 329.69 135.792C331.248 131.36 334.563 128.851 339.109 127.853C341.269 127.366 343.529 127.317 345.739 127.049C346.518 126.952 346.719 127.317 346.769 128.023C347.171 133.235 347.071 138.447 346.593 143.634C346.116 148.797 345.011 153.79 342.173 158.271C339.335 162.703 335.567 166.137 330.544 168.134C328.359 168.986 326.074 169.498 323.738 169.644C323.361 169.668 322.934 169.887 322.658 170.131C320.975 171.69 319.343 173.273 317.71 174.856C317.434 175.099 317.208 175.27 316.856 175.586Z" fill="white"/>
<path d="M314.847 111C317.961 114.385 321.302 117.6 324.115 121.204C327.631 125.685 327.329 132.504 323.813 136.888C322.834 138.106 321.578 139.129 320.448 140.2C318.689 141.856 316.906 143.488 315.148 145.12C314.972 145.29 314.771 145.436 314.495 145.68C314.495 134.063 314.495 122.568 314.495 111.097C314.621 111.073 314.746 111.024 314.847 111Z" fill="white"/>
<path d="M362.865 64.5769C378.373 56.3494 384.295 37.0722 376.09 21.5199C367.886 5.96771 348.663 0.0297762 333.154 8.25721C317.645 16.4846 311.724 35.7619 319.928 51.3141C328.133 66.8664 347.356 72.8043 362.865 64.5769Z" fill="white"/>
<path d="M373.952 49.7793L389.081 73.6733L363.173 61.6315L373.952 49.7793Z" fill="white"/>
<path d="M343.507 29.3932L347.005 23.4198C347.289 23.0405 347.289 22.4716 347.005 22.0923L345.303 19.153C345.114 18.7737 344.736 18.4893 344.263 18.3944C343.979 18.2996 343.79 18.3944 343.601 18.6789L337.55 29.2036C337.361 29.4881 337.55 29.8673 337.928 29.8673H342.845C343.128 29.7725 343.412 29.5829 343.507 29.3932Z" fill="#6CA348"/>
<path d="M356.082 26.2644L351.26 17.8256C350.882 17.2567 350.314 16.8774 349.652 16.8774H345.681C345.114 16.8774 344.641 17.1619 344.263 17.5412C344.168 17.636 344.263 17.8256 344.358 17.8256C344.83 17.9204 345.303 18.2049 345.587 18.679L351.544 28.9192L350.22 29.6778L356.46 31.9534L357.595 25.411L356.082 26.2644Z" fill="#6CA348"/>
<path d="M355.515 36.0306L359.013 42.0041C359.297 42.3834 359.675 42.6679 360.242 42.6679H363.646C364.119 42.6679 364.497 42.4782 364.875 42.1938C365.064 42.0041 365.064 41.7197 364.97 41.53L358.919 31.0053C358.729 30.7209 358.257 30.7209 358.068 31.0053L355.609 35.2721C355.326 35.4617 355.326 35.7462 355.515 36.0306Z" fill="#6CA348"/>
<path d="M351.922 48.4519H361.566C362.228 48.4519 362.89 48.0727 363.173 47.5038L365.159 43.9955C365.443 43.5214 365.443 42.9525 365.348 42.4784C365.348 42.3836 365.159 42.2888 365.064 42.4784C364.781 42.8577 364.214 43.1422 363.741 43.1422H351.922V41.5303L346.911 45.7971L352.016 50.0638L351.922 48.4519Z" fill="#6CA348"/>
<path d="M343.79 43.0469H336.888C336.415 43.0469 335.943 43.3313 335.659 43.7106L333.957 46.6499C333.768 47.0292 333.673 47.5033 333.768 47.9774C333.862 48.2618 334.052 48.4515 334.335 48.4515H346.438C346.816 48.4515 347.005 48.0722 346.816 47.7877L344.358 43.521C344.263 43.2365 344.074 43.0469 343.79 43.0469Z" fill="#6CA348"/>
<path d="M334.808 33.6601L329.986 42.0041C329.608 42.573 329.608 43.3315 329.986 43.9004L331.971 47.4086C332.255 47.8827 332.728 48.262 333.201 48.3568C333.295 48.3568 333.39 48.262 333.39 48.1672C333.201 47.6931 333.201 47.1242 333.484 46.6501L339.441 36.4098L340.765 37.1684L339.63 30.626L333.484 32.9016L334.808 33.6601Z" fill="#6CA348"/>
<path d="M200.544 367.228C200.544 367.228 203.759 378.7 213.687 390.647C214.916 392.164 213.309 394.44 211.512 393.682C203.854 390.647 192.507 384.674 189.86 374.813V393.113H185.321L182.107 366.185L200.544 367.228Z" fill="#232E57"/>
<path d="M91.3369 353.005C91.3369 353.005 86.6094 364.004 86.893 379.459C86.893 381.45 84.2456 382.209 83.3 380.407C79.2343 373.296 74.1285 361.349 78.2888 352.152L66.848 366.374L63.3496 363.53L77.7215 340.584L91.3369 353.005Z" fill="#232E57"/>
<path d="M179.837 150.76L202.719 248.042C204.137 254.016 205.083 260.179 205.556 266.342L214.349 375.003C214.349 375.003 186.929 376.899 160.927 371.02L170.477 260.369L159.603 190.204L155.065 250.792C154.403 260.274 151.85 269.566 147.69 278.194L107.505 360.97C107.505 360.97 72.4266 359.358 62.3096 330.344L121.877 248.232C121.877 248.232 123.957 179.963 141.26 151.044H179.837V150.76Z" fill="#4E62A8"/>
<path d="M168.964 207.271L177.379 260.653L172.273 373.011" stroke="#232E57" stroke-width="0.75" stroke-miterlimit="10"/>
<path d="M200.166 237.328L179.837 150.76H141.26C136.816 158.156 133.412 168.111 130.765 178.826C129.441 184.325 131.332 190.109 135.682 193.807C143.057 199.875 151.283 207.366 157.334 221.588L159.698 190.109L165.087 225.002C165.56 228.131 167.451 230.88 170.193 232.492C177.757 236.854 187.307 239.129 200.166 237.328Z" fill="#232E57"/>
<path d="M162.345 56.3216C162.345 56.3216 173.786 53.1926 178.608 61.6313C180.877 65.6137 177.852 69.7856 176.434 72.4405C175.11 75.0954 176.15 77.0865 179.365 80.5948C182.579 84.103 183.052 92.3521 174.448 92.3521C165.844 92.3521 153.079 92.3521 147.312 92.3521C141.638 92.3521 137.573 90.7402 137.478 84.8616C137.384 79.0777 144.002 74.9057 143.719 68.0789C143.435 61.2521 145.231 53.477 162.345 56.3216Z" fill="#3C542E"/>
<path d="M259.923 110.273L259.545 110.936C258.599 112.643 256.992 113.876 255.101 114.35L252.075 115.203C252.075 115.203 258.126 111.695 257.559 110.652C256.992 109.609 253.588 111.221 250.373 112.833C247.158 114.445 245.173 118.143 245.173 118.143L206.785 135.21C206.785 135.21 196.289 119.565 189.482 108.945C182.674 98.231 177.379 98.231 177.379 98.231L177.946 120.229C177.946 120.229 188.725 140.614 196.573 149.527C204.421 158.44 213.214 153.415 219.738 148.294C226.262 143.269 246.969 124.306 246.969 124.306C246.969 124.306 254.344 125.538 260.774 119.944C261.814 119.091 263.61 116.151 264.65 114.35C265.218 113.402 265.123 112.359 264.367 111.505L263.138 109.988C262.192 109.23 260.679 109.23 259.923 110.273Z" fill="#FF9587"/>
<path d="M177.852 119.375V120.229C177.852 120.229 186.834 137.201 194.398 146.967L182.012 105.248L177.852 119.375Z" fill="#DE5F50"/>
<path d="M262.098 109.514C262.098 109.514 261.247 113.971 256.897 115.488" stroke="#DE5F50" stroke-width="0.5" stroke-miterlimit="10"/>
<path d="M263.327 110.557C263.327 110.557 262.476 115.014 258.126 116.531" stroke="#DE5F50" stroke-width="0.5" stroke-miterlimit="10"/>
<path d="M264.367 111.79C264.367 111.79 263.516 116.246 259.167 117.764" stroke="#DE5F50" stroke-width="0.5" stroke-miterlimit="10"/>
<path d="M164.709 61.3467C164.709 61.3467 168.586 64.1912 170.76 67.6046C171.328 68.458 171.517 69.501 171.328 70.4491C171.139 71.6818 170.95 73.5781 171.611 75.2848C172.652 78.1293 174.164 84.1977 168.113 86.1888L168.586 94.7224L177.285 98.1358C179.837 99.1788 181.539 101.454 181.823 104.204L183.714 124.305L143.057 127.624L141.166 104.394C140.977 102.403 142.111 100.506 143.908 99.7477L152.512 95.8602C153.268 95.4809 153.836 94.8172 153.93 93.9638L155.916 78.7931C156.01 78.7931 164.898 74.8107 164.709 61.3467Z" fill="#FF9587"/>
<path d="M154.498 81.5432C156.378 81.5432 157.901 80.0149 157.901 78.1297C157.901 76.2445 156.378 74.7163 154.498 74.7163C152.618 74.7163 151.094 76.2445 151.094 78.1297C151.094 80.0149 152.618 81.5432 154.498 81.5432Z" fill="#FF9587"/>
<path d="M168.208 86.2836C164.615 87.7059 159.792 86.7577 157.901 82.7754C157.145 85.9044 159.131 98.3254 168.397 90.266L168.208 86.2836Z" fill="#DE5F50"/>
<path d="M162.345 56.3218C161.4 56.1321 160.549 56.0373 159.698 55.9425C156.2 55.5632 152.89 57.4596 151.472 60.6834C149.865 64.2864 149.959 68.2688 150.999 71.1133C150.999 64.0968 157.712 57.5544 162.345 56.3218Z" fill="#E8B83A"/>
<path d="M146.744 118.048L149.486 110.083L166.884 120.513L177.852 109.609C177.852 109.609 184.281 119.091 185.038 122.125C185.794 125.159 177.284 139.761 177.284 139.761L179.743 150.949C179.743 150.949 158.941 156.164 141.166 150.949L146.461 142.416L139.937 124.685L146.744 118.048Z" fill="#E8B83A"/>
<path d="M145.231 98.8945C145.231 98.8945 150.526 108.661 150.715 117.194" stroke="#E8B83A" stroke-width="0.75" stroke-miterlimit="10"/>
<path d="M178.136 116.246C178.136 116.246 179.27 103.73 173.408 96.7139" stroke="#E8B83A" stroke-width="0.75" stroke-miterlimit="10"/>
<path d="M155.538 98.8945L163.385 105.342" stroke="#DE5F50" stroke-width="0.75" stroke-miterlimit="10"/>
<path d="M139.18 154.552C139.18 154.552 155.065 163.655 181.539 155.69" stroke="#4E62A8" stroke-width="0.75" stroke-miterlimit="10"/>
<path d="M159.414 188.781L163.385 158.819" stroke="#4E62A8" stroke-width="0.75" stroke-miterlimit="10"/>
<path d="M168.964 158.345C168.964 158.345 169.437 182.049 160.171 183.092" stroke="#4E62A8" stroke-width="0.75" stroke-miterlimit="10"/>
<path d="M150.621 158.155C150.621 158.155 146.839 173.042 132.562 171.999" stroke="#4E62A8" stroke-width="0.75" stroke-miterlimit="10"/>
<path d="M139.18 171.904L131.616 252.309L70.441 343.997" stroke="#232E57" stroke-width="0.75" stroke-miterlimit="10"/>
<path d="M165.087 73.2938C165.087 73.7679 164.709 74.1471 164.236 74.1471C163.764 74.1471 163.385 73.7679 163.385 73.2938C163.385 72.8197 163.764 72.4404 164.236 72.4404C164.709 72.4404 165.087 72.8197 165.087 73.2938Z" fill="#293459"/>
<path d="M170.288 73.2938C170.288 73.7679 169.91 74.1471 169.437 74.1471C168.964 74.1471 168.586 73.7679 168.586 73.2938C168.586 72.8197 168.964 72.4404 169.437 72.4404C169.91 72.4404 170.288 72.8197 170.288 73.2938Z" fill="#293459"/>
<path d="M162.062 70.8288C162.062 70.8288 163.953 69.7858 166.127 70.8288" stroke="#3C542E" stroke-miterlimit="10"/>
<path d="M168.018 71.1129C168.018 71.1129 169.248 70.2596 171.422 71.2077" stroke="#3C542E" stroke-miterlimit="10"/>
<path d="M167.546 72.4404V75.0005C167.546 75.0005 169.72 74.9057 168.586 76.7072" stroke="#DE5F50" stroke-width="0.75" stroke-miterlimit="10"/>
<path d="M169.626 77.8451L163.764 76.897C163.764 76.897 164.898 82.586 167.073 82.7756C169.342 82.9653 169.626 77.8451 169.626 77.8451Z" fill="white"/>
<path d="M164.236 76.0436C164.236 76.6125 163.575 77.1814 162.818 77.1814C162.062 77.1814 161.4 76.7073 161.4 76.0436C161.4 75.4747 162.062 74.9058 162.818 74.9058C163.575 74.9058 164.236 75.4747 164.236 76.0436Z" fill="#DE5F50"/>
<path d="M170.288 76.8968C170.288 77.3709 170.95 77.7502 171.706 77.7502C171.99 77.7502 172.179 77.7502 172.368 77.6554C172.273 77.0865 172.084 76.5175 171.895 76.0435C171.801 76.0435 171.706 76.0435 171.611 76.0435C170.855 76.0435 170.288 76.4227 170.288 76.8968Z" fill="#DE5F50"/>
<path d="M165.087 212.296L213.876 217.511L224.844 159.672L176.15 154.458L165.087 212.296Z" fill="white"/>
<path d="M213.876 217.511L219.455 218.175L224.844 159.672L213.876 217.511Z" fill="#ECFFE0"/>
<path d="M212.269 160.431L188.82 157.966C188.82 157.966 195.06 139.192 202.625 140.045C210.094 140.709 212.269 160.431 212.269 160.431Z" stroke="white" stroke-width="0.8677" stroke-miterlimit="10"/>
<path d="M203.192 167.542C203.192 167.542 202.814 172.568 203.665 179.584C204.799 189.445 204.894 200.16 195.533 204.426C189.955 187.739 199.599 171.62 199.599 171.62C191.278 180.627 191.467 195.419 192.129 202.625C179.743 188.213 186.551 169.628 203.192 167.542Z" fill="#72A652"/>
<path d="M144.002 99.8428C137.005 103.351 132.562 106.859 124.619 122.599C116.677 138.339 105.898 151.423 109.207 163.37C112.517 175.412 148.73 176.171 162.534 177.119C166.222 179.584 173.313 174.938 173.313 174.938L177.663 176.455C178.325 176.74 179.176 176.455 179.554 175.886L182.485 171.714C182.958 171.051 182.769 170.197 182.107 169.818L178.23 167.258C176.434 166.12 174.164 165.93 172.273 166.879L162.629 171.525L130.292 155.69L146.366 117.574L144.002 99.8428Z" fill="#FF9587"/>
<path d="M130.198 155.595C125.848 153.699 124.619 148.105 127.739 144.502L141.449 128.952L130.198 155.595Z" fill="#DE5F50"/>
<path d="M175.204 168.49L182.012 172.283" stroke="#DE5F50" stroke-width="0.5" stroke-miterlimit="10"/>
<path d="M174.448 170.387L180.783 173.895" stroke="#DE5F50" stroke-width="0.5" stroke-miterlimit="10"/>
<path d="M173.597 171.904L179.837 175.317" stroke="#DE5F50" stroke-width="0.5" stroke-miterlimit="10"/>
<path d="M229.761 329.206C229.761 329.206 235.718 326.456 239.594 333.188C243.471 339.92 259.356 354.427 268.622 338.213C278.928 333.946 269.662 318.776 257.275 315.931C246.024 313.371 234.772 319.914 229.761 329.206Z" fill="#BDD95F"/>
<path d="M231.936 327.215C259.45 315.837 275.902 346.557 284.885 369.219" stroke="#72A652" stroke-width="0.706" stroke-miterlimit="10"/>
<path d="M403.547 325.698C403.547 325.698 395.794 329.206 393.619 338.214C391.35 347.221 386.528 350.635 380.949 351.109C375.371 351.583 369.698 348.075 364.025 351.203C364.403 343.049 359.77 331.102 368.658 325.318C377.64 319.535 393.43 319.44 403.547 325.698Z" fill="#BDD95F"/>
<path d="M398.82 325.603C398.82 325.603 373.763 324.844 360.148 359.832" stroke="#72A652" stroke-width="0.706" stroke-miterlimit="10"/>
<path d="M367.806 263.972C367.806 263.972 374.425 272.885 372.345 281.134C370.17 289.383 367.428 292.891 370.265 302.752C373.101 312.613 374.425 322.19 367.806 328.637C361.188 335.085 355.798 338.498 360.148 349.592C364.592 360.685 346.249 381.83 346.249 381.83L305.591 382.778C305.591 382.778 314.101 353.669 313.061 342.006C312.021 330.249 324.785 327.025 327.055 320.672C329.324 314.32 325.825 305.976 331.688 299.907C337.55 293.744 346.343 294.503 348.707 286.443C351.071 278.194 348.707 265.489 367.806 263.972Z" fill="#72A652"/>
<path d="M369.225 297.632C369.225 297.347 369.13 297.063 369.13 296.778L352.584 306.071L364.592 271.652L363.835 271.367L356.838 291.469L353.435 270.135C353.246 270.419 352.962 270.798 352.773 271.083L356.271 292.986L347.951 316.88L340.765 294.029C340.481 294.124 340.292 294.218 340.008 294.408L347.478 318.207L338.495 343.997L328.189 307.682C328.095 308.441 328 309.199 328 309.958L338.023 345.325L329.513 369.883L315.236 333.378C315.047 333.662 314.857 333.947 314.763 334.231L329.135 371.02L325.258 382.209L325.636 382.304H326.015L327.717 377.468L355.326 369.314C355.515 369.029 355.704 368.65 355.893 368.365L328.095 376.615L334.146 359.168L359.864 348.549C359.77 348.264 359.675 348.075 359.58 347.79L334.524 358.125L342.372 335.654L372.44 320.198C372.534 319.914 372.534 319.535 372.534 319.25L342.75 334.516L352.3 307.208L369.225 297.632Z" fill="#3C542E"/>
<path d="M292.449 381.829C292.449 381.829 290.841 372.063 286.019 365.141C281.197 358.22 272.026 359.737 266.92 356.229C261.719 352.72 257.086 346.747 246.686 344.661C236.285 342.48 232.503 348.833 225.79 351.962C219.171 355.186 214.633 361.254 215.294 365.141C215.956 369.029 217.469 371.399 226.452 372.063C235.529 372.727 238.176 370.356 241.864 373.201C245.551 376.045 242.431 380.502 252.359 381.829C262.287 383.157 273.728 379.079 278.644 385.812L292.449 381.829Z" fill="#3C542E"/>
<path d="M220.117 363.34C232.597 352.91 242.998 356.134 248.009 359.642C253.021 363.15 254.912 366.09 261.436 367.417C267.96 368.745 280.724 367.512 285.263 384.01" stroke="#72A652" stroke-width="0.8313" stroke-miterlimit="10"/>
<path d="M336.132 382.114L355.704 384.484C355.704 384.484 365.726 385.148 371.21 380.976C376.694 376.804 379.342 369.503 386.055 369.977C392.768 370.451 403.263 371.589 405.438 362.582C407.613 353.574 399.198 348.454 392.201 349.592C385.299 350.824 384.542 356.418 372.629 355.281C360.715 354.238 341.048 359.737 336.132 382.114Z" fill="#3C542E"/>
<path d="M346.816 383.062C346.816 383.062 369.225 352.246 404.114 361.538" stroke="#72A652" stroke-width="0.8313" stroke-miterlimit="10"/>
<path d="M247.537 268.618C246.402 269.281 245.835 270.419 245.74 271.652C244.605 271.272 243.282 271.272 242.242 272.031C241.107 272.695 240.54 273.833 240.445 275.065C239.311 274.686 237.987 274.686 236.947 275.444C235.056 276.582 234.488 279.142 235.718 280.944C236.852 282.84 239.405 283.409 241.202 282.176C242.336 281.513 242.904 280.375 242.998 279.142C244.133 279.522 245.456 279.522 246.497 278.763C247.537 278.005 248.198 276.962 248.293 275.729C249.428 276.108 250.751 276.108 251.791 275.35C253.682 274.212 254.25 271.652 253.021 269.85C251.886 268.049 249.428 267.48 247.537 268.618Z" fill="#ED7440"/>
<path d="M250.94 272.695C246.307 271.841 244.889 276.487 244.889 276.487C244.889 276.487 240.067 275.729 238.838 280.28C238.838 280.28 233.543 279.711 232.408 284.357L254.344 291.563L257.275 268.618C252.642 267.669 250.94 272.695 250.94 272.695Z" fill="#EDB255"/>
<path d="M245.551 277.341L252.926 289.098" stroke="#EDDBBE" stroke-width="0.75" stroke-miterlimit="10"/>
<path d="M239.689 281.039L251.981 289.762" stroke="#EDDBBE" stroke-width="0.75" stroke-miterlimit="10"/>
<path d="M251.319 273.738L253.872 288.529" stroke="#EDDBBE" stroke-width="0.75" stroke-miterlimit="10"/>
<path d="M254.439 291.563L287.721 344.187" stroke="#3C542E" stroke-width="0.7115" stroke-miterlimit="10"/>
<path d="M260.868 292.227C260.301 295.546 260.585 298.58 261.625 300.382C263.138 299.054 264.461 296.304 265.029 292.986C265.596 289.667 265.312 286.633 264.272 284.832C262.759 286.159 261.436 288.909 260.868 292.227Z" fill="#72A652"/>
<path d="M253.872 300.097C257.086 301.045 259.734 302.657 260.868 304.269C258.977 305.027 255.952 305.122 252.737 304.174C249.522 303.226 246.875 301.614 245.74 300.002C247.631 299.149 250.657 299.149 253.872 300.097Z" fill="#72A652"/>
<path d="M303.228 225.95C301.999 226.045 300.958 226.708 300.297 227.751C299.54 226.898 298.406 226.424 297.176 226.519C295.947 226.613 294.907 227.277 294.245 228.32C293.489 227.467 292.354 226.993 291.125 227.088C289.045 227.277 287.438 229.079 287.627 231.165C287.816 233.251 289.612 234.863 291.692 234.673C292.922 234.578 293.962 233.914 294.624 232.871C295.38 233.725 296.515 234.199 297.744 234.104C298.973 234.009 300.013 233.345 300.675 232.302C301.431 233.156 302.566 233.63 303.795 233.535C305.875 233.345 307.483 231.544 307.293 229.458C307.104 227.372 305.308 225.76 303.228 225.95Z" fill="#ED7440"/>
<path d="M304.362 230.88C300.864 228.131 297.555 231.449 297.555 231.449C297.555 231.449 293.773 228.699 290.747 232.018C290.747 232.018 286.587 229.173 283.561 232.587L298.878 248.421L311.454 230.311C307.955 227.372 304.362 230.88 304.362 230.88Z" fill="#EDB255"/>
<path d="M297.649 232.397L298.689 245.672" stroke="#3C542E" stroke-width="0.6788" stroke-miterlimit="10"/>
<path d="M291.125 232.966L297.649 245.767" stroke="#3C542E" stroke-width="0.6788" stroke-miterlimit="10"/>
<path d="M304.173 231.923L299.729 245.577" stroke="#3C542E" stroke-width="0.6788" stroke-miterlimit="10"/>
<path d="M298.878 248.327L303.7 307.587" stroke="#3C542E" stroke-width="0.6788" stroke-miterlimit="10"/>
<path d="M303.984 251.835C301.999 254.395 300.958 257.145 300.958 259.041C302.85 258.567 305.213 256.86 307.104 254.3C309.09 251.74 310.13 248.991 310.13 247.094C308.334 247.474 305.97 249.275 303.984 251.835Z" fill="#72A652"/>
<path d="M294.718 255.343C297.082 257.524 298.595 260.084 298.784 261.981C296.893 261.791 294.245 260.464 291.882 258.283C289.518 256.102 288.005 253.542 287.816 251.646C289.707 251.74 292.354 253.068 294.718 255.343Z" fill="#72A652"/>
<path d="M346.249 253.352C345.019 253.067 343.79 253.257 342.939 254.015C342.467 252.972 341.616 252.119 340.386 251.74C339.157 251.455 337.928 251.645 337.077 252.404C336.604 251.361 335.753 250.507 334.524 250.128C332.539 249.559 330.364 250.792 329.797 252.783C329.229 254.774 330.458 256.955 332.444 257.524C333.673 257.808 334.902 257.618 335.753 256.86C336.226 257.903 337.077 258.756 338.306 259.136C339.535 259.42 340.765 259.23 341.616 258.472C342.088 259.515 342.939 260.368 344.168 260.747C346.154 261.316 348.329 260.084 348.896 258.093C349.558 256.007 348.329 253.921 346.249 253.352Z" fill="#ED7440"/>
<path d="M345.681 258.282C343.318 254.49 339.157 256.481 339.157 256.481C339.157 256.481 336.604 252.593 332.633 254.679C332.633 254.679 329.702 250.602 325.636 252.783L334.619 272.884L352.678 260.273C350.314 256.291 345.681 258.282 345.681 258.282Z" fill="#EDB255"/>
<path d="M338.874 257.524L335.281 270.229" stroke="#3C542E" stroke-width="0.6788" stroke-miterlimit="10"/>
<path d="M332.539 255.722L334.335 270.04" stroke="#3C542E" stroke-width="0.6788" stroke-miterlimit="10"/>
<path d="M345.114 259.23L336.321 270.514" stroke="#3C542E" stroke-width="0.6788" stroke-miterlimit="10"/>
<path d="M334.619 272.884L313.439 349.686" stroke="#3C542E" stroke-width="0.6788" stroke-miterlimit="10"/>
<path d="M338.212 277.909C335.47 279.616 333.579 281.797 332.917 283.693C334.808 283.883 337.644 283.124 340.386 281.322C343.128 279.616 345.019 277.435 345.681 275.539C343.696 275.349 340.859 276.108 338.212 277.909Z" fill="#72A652"/>
<path d="M328.284 278.004C329.702 280.849 330.269 283.788 329.891 285.684C328.095 284.926 326.109 282.745 324.691 279.9C323.273 277.056 322.705 274.117 323.083 272.22C324.785 272.979 326.771 275.065 328.284 278.004Z" fill="#72A652"/>
<path d="M382.273 311.759C379.531 313.466 377.64 315.647 376.978 317.543C378.869 317.733 381.706 316.974 384.448 315.173C387.19 313.466 389.081 311.285 389.743 309.389C387.757 309.199 385.015 309.958 382.273 311.759Z" fill="#72A652"/>
<path d="M257.654 241.879C256.235 244.819 255.763 247.663 256.141 249.559C257.843 248.706 259.828 246.525 261.247 243.681C262.665 240.741 263.138 237.897 262.759 236C261.057 236.854 259.072 239.035 257.654 241.879Z" fill="#72A652"/>
<path d="M327.906 238.181C326.487 241.121 326.015 243.965 326.393 245.862C328.095 245.008 330.08 242.827 331.499 239.983C332.917 237.044 333.39 234.199 333.012 232.303C331.31 233.061 329.324 235.242 327.906 238.181Z" fill="#72A652"/>
<path d="M335.092 382.114C337.172 372.537 337.645 367.512 333.012 359.832C327.055 349.781 322.894 347.6 325.826 335.464C326.866 330.913 325.92 327.594 324.124 324.75C319.68 329.016 312.305 332.999 313.156 342.006C314.196 353.764 305.686 382.778 305.686 382.778L335.092 382.114Z" fill="#3C542E"/>
<path d="M272.309 240.457C272.309 240.457 285.168 246.999 287.532 261.791C289.896 276.582 296.798 273.169 302.471 283.125C308.05 293.081 303.039 300.287 307.293 306.924C311.548 313.561 323.462 316.5 321.476 328.827C319.491 341.058 319.491 341.817 325.353 350.919C331.215 360.022 337.55 367.417 332.539 380.881L284.128 382.683C284.128 382.683 282.048 376.046 283.561 363.435C285.168 350.919 281.953 345.799 277.131 337.834C272.309 329.87 280.062 320.483 278.455 316.216C276.848 311.949 269.189 308.251 269.945 296.304C270.702 284.452 271.553 279.048 265.974 269.661C260.396 260.369 264.461 247.284 272.309 240.457Z" fill="#72A652"/>
<path d="M310.319 380.312L327.055 353.763C326.866 353.479 326.771 353.289 326.582 353.005L310.035 379.269L302.093 351.014L313.439 313.182C313.25 312.992 312.966 312.802 312.777 312.613L301.715 349.591L292.26 316.026L302.471 283.409C302.471 283.314 302.377 283.314 302.377 283.219C302.188 282.935 302.093 282.745 301.904 282.461L291.881 314.604L284.223 287.296L289.896 269.755C289.707 269.471 289.518 269.092 289.423 268.712L283.845 285.874L273.727 249.938L272.971 250.128L278.644 270.419L263.327 258.946C263.327 259.231 263.327 259.61 263.327 259.894L279.022 271.557L287.627 302.372L270.418 290.046C270.418 290.331 270.418 290.71 270.324 290.994L288.005 303.795L291.409 316.026L291.314 316.311L291.503 316.405L296.798 335.464L277.037 324.275C276.942 324.56 276.848 324.749 276.753 325.034L297.082 336.507L306.159 368.839L283.939 356.513C283.939 356.798 283.939 357.082 283.939 357.461L306.537 369.788L309.941 381.829H310.792L310.319 380.312Z" fill="#3C542E"/>
<path d="M257.061 67.4864C265.209 52.3185 259.553 33.3981 244.428 25.2267C229.302 17.0552 210.435 22.727 202.286 37.8949C194.138 53.0629 199.794 71.9832 214.919 80.1546C230.045 88.3261 248.912 82.6543 257.061 67.4864Z" fill="white"/>
<path d="M203.854 64.9502L188.253 87.8012L213.971 76.8972L203.854 64.9502Z" fill="white"/>
<path d="M241.013 41.5303C234.583 38.7806 229.666 46.6504 229.666 46.6504C229.666 46.6504 224.75 38.7806 218.32 41.5303C211.985 44.1851 210.945 60.1144 229.666 68.8376C248.388 60.1144 247.347 44.1851 241.013 41.5303Z" fill="#DE5F50"/>
<path d="M432.669 308.251H376.789L371.21 241.405H427.09L432.669 308.251Z" fill="white"/>
<path d="M395.888 252.214C395.888 252.214 395.699 257.903 393.903 265.773C391.444 276.866 390.026 288.908 400.143 294.882C408.464 276.582 399.481 257.239 399.481 257.239C407.802 268.428 405.816 285.21 404.209 293.27C420.094 278.478 414.515 256.575 395.888 252.214Z" fill="#72A652"/>
<path d="M376.789 308.251H361.566L371.21 241.405L376.789 308.251Z" fill="#ECFFE0"/>
<path d="M385.488 243.68H412.34C412.34 243.68 407.518 221.683 398.914 221.683C390.215 221.683 385.488 243.68 385.488 243.68Z" stroke="white" stroke-width="0.9884" stroke-miterlimit="10"/>
<path d="M421.985 365.047L422.457 371.02C422.646 374.244 420.661 377.183 417.541 378.131L408.464 380.786C408.464 380.786 399.859 380.123 399.859 387.044V390.647H438.153C438.153 390.647 438.153 384.769 436.167 379.459C435.222 376.994 434.938 374.434 435.222 371.779L436.167 364.193L421.985 365.047Z" fill="#FF9587"/>
<path d="M427.563 378.226C426.523 375.097 423.497 374.718 421.606 374.813C420.755 376.425 419.337 377.657 417.541 378.226L408.464 380.881C408.464 380.881 399.859 380.217 399.859 387.139V390.742H438.153C438.153 390.742 438.153 384.863 436.167 379.554C435.978 379.174 435.884 378.7 435.789 378.226L430.494 379.838C429.171 380.123 427.941 379.459 427.563 378.226Z" fill="#33406E"/>
<path d="M438.153 390.647C438.153 390.647 438.153 389.225 437.964 387.044H399.859V390.647H438.153Z" fill="#4E62A8"/>
<path d="M498.099 352.246L502.921 365.141C504.15 368.555 504.056 372.253 502.448 375.571L498.383 384.01C498.383 384.01 492.048 389.889 497.248 394.629L499.895 397L525.708 368.649C525.708 368.649 520.886 364.193 515.213 362.297C513.794 361.823 512.754 360.495 512.754 358.978L512.471 347.126L498.099 352.246Z" fill="#FF9587"/>
<path d="M509.351 368.081C506.419 366.753 504.056 368.744 502.826 370.166C503.394 371.873 503.394 373.77 502.543 375.476L498.383 384.01C498.383 384.01 492.048 389.889 497.248 394.629L499.895 397L525.708 368.649C525.708 368.649 521.359 364.667 516.064 362.581C515.685 362.391 515.213 362.202 514.835 362.012L512.471 367.038C511.903 368.175 510.58 368.649 509.351 368.081Z" fill="#33406E"/>
<path d="M525.708 368.65C525.708 368.65 524.668 367.701 522.966 366.374L497.248 394.63L499.895 397L525.708 368.65Z" fill="#4E62A8"/>
<path d="M467.653 174.653L439.855 283.409C439.855 283.409 444.015 319.06 437.869 366.658H417.73L409.693 299.433C407.802 283.788 408.464 267.954 411.489 252.498L425.672 181.101L467.653 174.653Z" fill="#33406E"/>
<path d="M455.929 188.781L433.331 282.366V366.659" stroke="#232E57" stroke-width="0.75" stroke-miterlimit="10"/>
<path d="M497.531 168.775L496.964 277.341C496.964 277.341 509.445 296.683 515.496 356.039L499.517 361.823L474.839 294.408C471.813 286.159 469.733 277.72 468.504 268.997L455.929 179.489L497.531 168.775Z" fill="#33406E"/>
<path d="M497.532 168.775L467.18 176.55L467.653 174.654L425.767 181.101L423.592 191.816L455.929 197.315C455.929 197.315 475.406 210.02 497.248 210.969L497.532 168.775Z" fill="#232E57"/>
<path d="M478.999 177.403C478.999 177.403 484.105 190.298 497.437 188.591L497.532 168.68L478.999 177.403Z" fill="#33406E"/>
<path d="M491.858 186.316V276.772C491.858 276.772 511.336 344.187 511.431 357.461" stroke="#232E57" stroke-width="0.75" stroke-miterlimit="10"/>
<path d="M459.616 205.469L455.929 179.394" stroke="#4E62A8" stroke-width="0.5" stroke-miterlimit="10"/>
<path d="M449.877 178.825C449.877 178.825 448.27 199.78 459.143 200.823" stroke="#4E62A8" stroke-width="0.5" stroke-miterlimit="10"/>
<path d="M408.842 132.744L405.344 168.775L393.997 219.218L392.957 226.139C392.674 228.036 394.092 229.647 395.983 229.647H403.169C404.398 229.647 405.343 228.699 405.533 227.561L405.816 224.338C405.911 223.579 405.627 222.821 405.154 222.157L404.871 221.778C404.871 221.778 405.533 219.218 404.303 216.942C404.02 216.373 404.02 215.614 404.303 215.046L427.469 170.671L430.967 138.433L408.842 132.744Z" fill="#FF9587"/>
<path d="M431.062 138.338L408.842 132.744L408.464 137.011C408.275 139.097 409.126 141.088 410.828 142.321C415.65 145.734 422.741 152.371 428.225 164.413L431.062 138.338Z" fill="#DE5F50"/>
<path d="M421.417 91.7832C416.122 95.4811 412.908 103.351 405.438 133.313L434.938 143.648L421.417 91.7832Z" fill="#70915E"/>
<path d="M420.188 138.433L423.403 103.351L431.723 140.235L420.188 138.433Z" fill="#4C693D"/>
<path d="M403.736 130.563L433.709 138.718L432.764 145.639L402.223 136.821L403.736 130.563Z" fill="#9EBF8C"/>
<path d="M455.078 74.6211L475.974 78.2242C484.294 79.6464 491.953 83.5339 498.099 89.3178L519.562 109.703L492.993 129.71L494.979 163.275L498.477 170.481L488.738 172.852L467.653 188.686C465.006 190.677 461.413 190.772 458.671 188.971L448.365 182.334L443.542 188.781C441.651 191.246 438.248 192.1 435.506 190.677L423.119 184.325L428.414 166.689C428.414 166.689 426.145 162.991 428.509 160.81L425.294 115.582L421.323 91.5934L439.098 79.7412L455.078 74.6211Z" fill="#70915E"/>
<path d="M469.828 174.653L493.371 166.688" stroke="#9EBF8C" stroke-width="0.75" stroke-miterlimit="10"/>
<path d="M476.636 167.637L493.939 164.224" stroke="#9EBF8C" stroke-width="0.75" stroke-miterlimit="10"/>
<path d="M451.863 72.5352L454.132 73.1989C456.969 74.0522 459.427 75.8538 461.224 78.2242L465.762 84.4821C467.653 87.0422 467.37 90.5504 465.1 92.7312L455.929 101.834L457.063 103.161C458.954 105.342 458.765 108.566 456.591 110.557L447.608 118.711L439.099 111.221C437.207 109.609 436.829 106.859 438.153 104.773L439.855 102.118L431.345 95.1965C429.643 93.7742 429.265 91.4038 430.4 89.5075L437.775 78.1294L451.863 72.5352Z" fill="#4C693D"/>
<path d="M492.993 129.71L476.919 110.083L494.033 147.725L492.993 129.71Z" fill="#4C693D"/>
<path d="M475.69 104.963C474.366 96.8083 476.257 85.2406 482.309 81.2583" stroke="#9EBF8C" stroke-width="0.75" stroke-miterlimit="10"/>
<path d="M492.899 127.529L507.081 145.829L485.523 176.076L481.458 181.575C481.458 181.575 485.334 188.212 494.128 188.686V181.101C494.128 181.101 511.809 166.973 519.657 160.715C527.41 154.457 531.948 143.933 524.668 129.521C517.387 115.108 514.835 110.652 514.835 110.652L492.899 127.529Z" fill="#FF9587"/>
<path d="M514.74 110.557L492.898 127.529L501.125 138.148L518.333 117.289C515.686 112.358 514.74 110.557 514.74 110.557Z" fill="#DE5F50"/>
<path d="M506.987 145.829L513.511 137.485" stroke="#DE5F50" stroke-width="0.9884" stroke-miterlimit="10"/>
<path d="M447.703 118.711L448.365 181.101" stroke="#9EBF8C" stroke-width="0.75" stroke-miterlimit="10"/>
<path d="M499.612 361.728L515.591 355.944C515.307 353.384 515.024 350.919 514.74 348.548L496.964 354.522L499.612 361.728Z" fill="#4E62A8"/>
<path d="M416.879 358.883L417.824 366.658H437.964C438.342 364.003 438.626 361.443 438.909 358.883H416.879Z" fill="#4E62A8"/>
<path d="M399.009 216.562C399.009 216.562 400.9 221.019 399.009 226.518L401.561 226.708C402.412 226.803 402.98 227.561 402.791 228.415L402.507 229.647" stroke="#DE5F50" stroke-width="0.9884" stroke-miterlimit="10"/>
<path d="M404.965 221.683H399.859" stroke="#DE5F50" stroke-width="0.9884" stroke-miterlimit="10"/>
<path d="M457.063 120.133L473.421 118.616C473.421 118.616 476.352 137.011 466.708 138.054C456.969 139.286 457.063 120.133 457.063 120.133Z" stroke="#9EBF8C" stroke-width="0.9884" stroke-miterlimit="10"/>
<path d="M443.826 61.4415C443.826 61.4415 444.866 53.0028 445.244 48.5464C445.623 44.09 442.219 40.6765 437.869 42.2884C434.938 38.3061 428.698 39.4439 427.09 42.1936C423.781 36.8838 416.028 39.7284 414.988 44.1848C407.518 42.004 404.114 51.4857 408.842 56.6058C413.664 61.8208 421.985 58.5022 421.985 58.5022L443.732 64.4757L443.826 61.4415Z" fill="#293459"/>
<path d="M433.331 54.8993C434.276 57.4593 436.735 61.5365 443.353 61.7261L453.565 74.6212C455.172 75.0953 456.212 76.7072 455.834 78.4139L447.608 118.616L437.113 84.7667C436.64 83.3444 436.924 81.7325 437.869 80.4999L434.844 74.7161C434.844 74.7161 429.549 79.1725 424.727 76.328C421.134 74.1472 421.323 69.027 421.606 66.5618C421.796 65.5188 421.701 64.381 421.323 63.4328L419.715 58.2179C419.526 57.7438 419.904 57.2697 420.377 57.1749C421.417 56.9852 423.119 56.4163 424.065 54.8044C424.443 54.2355 425.105 54.1407 425.672 54.4252C427.469 55.563 429.454 54.8044 430.873 54.0459C431.913 53.5718 433.047 53.9511 433.331 54.8993Z" fill="#FF9587"/>
<path d="M434.938 74.7157C437.018 73.2935 439.193 68.837 439.666 66.6562C440.99 68.4578 440.706 70.923 440.233 72.6297C439.949 73.8624 439.855 75.095 440.044 76.3276C440.422 78.224 440.517 81.0685 439.099 82.4907L434.938 74.7157Z" fill="#DE5F50"/>
<path d="M446.19 60.7776C445.623 62.9584 443.542 64.2858 441.651 63.7169C439.76 63.148 438.72 60.9672 439.288 58.7864C439.855 56.6056 441.935 55.2782 443.826 55.8471C445.717 56.3212 446.757 58.5968 446.19 60.7776Z" fill="#FF9587"/>
<path d="M451.674 81.1636L446.19 88.5593" stroke="#DE5F50" stroke-width="0.9884" stroke-miterlimit="10"/>
<path d="M426.712 67.6994L432.669 64.9497C432.669 64.9497 433.236 69.8802 431.251 71.8714C429.265 73.8625 426.712 67.6994 426.712 67.6994Z" fill="white"/>
<path d="M425.199 63.5276C425.199 64.0016 424.821 64.2861 424.443 64.2861C423.97 64.2861 423.687 63.9068 423.687 63.5276C423.687 63.0535 424.065 62.769 424.443 62.769C424.821 62.6742 425.199 63.0535 425.199 63.5276Z" fill="#293459"/>
<path d="M429.171 62.6743C429.588 62.6743 429.927 62.3347 429.927 61.9158C429.927 61.4968 429.588 61.1572 429.171 61.1572C428.753 61.1572 428.414 61.4968 428.414 61.9158C428.414 62.3347 428.753 62.6743 429.171 62.6743Z" fill="#293459"/>
<path d="M426.618 62.4844L426.807 65.8978L428.792 64.8548" stroke="#DE5F50" stroke-width="0.5" stroke-miterlimit="10"/>
<path d="M427.28 60.588C427.28 60.588 428.698 58.2176 431.534 59.3554" stroke="#293459" stroke-width="0.9884" stroke-miterlimit="10"/>
<path d="M425.389 61.1571C425.389 61.1571 423.119 59.8297 422.268 62.2001" stroke="#293459" stroke-width="0.9884" stroke-miterlimit="10"/>
<path d="M441.084 61.631C440.233 58.7865 442.691 56.985 444.204 58.4073" stroke="#DE5F50" stroke-width="0.5" stroke-miterlimit="10"/>
<path d="M490.346 127.719L517.387 105.911L522.21 111.22L494.979 132.649L490.346 127.719Z" fill="#9EBF8C"/>
</g>
<defs>
<clipPath id="clip0_2_175">
<rect width="597" height="397" fill="white"/>
</clipPath>
</defs>
</svg>
