<svg width="179" height="45" viewBox="0 0 179 45" fill="none" xmlns="http://www.w3.org/2000/svg">
<g clip-path="url(#clip0_90_159)">
<path d="M20.8656 44.9999C20.8656 42.0325 20.8656 39.1663 20.8656 36.2326C20.0135 36.2326 19.2137 36.2663 18.4139 36.2326C16.8489 36.1652 15.2666 36.1989 13.7365 35.9629C11.1805 35.5751 9.1113 34.2262 7.37251 32.4053C7.00736 32.0176 6.62483 31.6298 6.25968 31.2251C6.2249 31.1914 6.24229 31.124 6.2249 31.0397C7.37251 30.7362 8.50272 30.4495 9.65033 30.1629C9.78943 30.1292 10.0329 30.2135 10.1024 30.3147C11.5804 32.4391 13.7539 33.1809 16.2751 33.1809C17.6488 33.1809 19.005 33.1809 20.3787 33.1978C20.796 33.1978 20.9177 33.0797 20.9003 32.692C20.8829 30.9554 20.8829 29.2188 20.8829 27.499C20.8829 27.0944 20.7264 26.8077 20.4135 26.538C18.1704 24.4642 15.9274 22.3904 13.7017 20.2997C12.8497 19.5072 12.3455 18.4956 11.9803 17.4503C10.9196 14.3817 8.62444 12.6451 5.47722 11.9539C3.98186 11.6167 2.41694 11.5829 0.886805 11.3975C0.347779 11.33 0.208675 11.5829 0.173899 12.0719C-0.104308 15.68 -0.0347562 19.2881 0.295615 22.8793C0.625986 26.4537 1.39106 29.91 3.35589 33.0123C5.32073 36.0809 7.92892 38.4582 11.4065 39.8407C12.9193 40.4308 14.5016 40.7849 16.1186 40.886C16.3795 40.9029 16.6751 41.0546 16.8663 41.2232C18.0313 42.3023 19.1615 43.3982 20.2917 44.4941C20.4656 44.6459 20.6221 44.7808 20.8656 44.9999Z" fill="url(#paint0_linear_90_159)"/>
<path d="M22.2392 0.286621C20.1005 2.6302 17.7705 4.85575 15.823 7.35106C13.3887 10.4534 13.5974 15.1742 16.0317 18.2091C16.7098 19.0521 17.5792 19.7602 18.3617 20.5021C19.5788 21.6486 20.8134 22.7782 22.0305 23.9078C22.1522 24.0259 22.2913 24.127 22.4826 24.2956C22.4826 16.2533 22.4826 8.29524 22.4826 0.354062C22.4131 0.337202 22.3261 0.303481 22.2392 0.286621Z" fill="url(#paint1_linear_90_159)"/>
<path d="M24.1345 44.7133C24.1345 41.7459 24.1345 38.8797 24.1345 35.946C24.9865 35.946 25.7863 35.9797 26.5862 35.946C28.1511 35.8785 29.7334 35.9123 31.2635 35.6762C33.8195 35.2884 35.8887 33.9396 37.6275 32.1187C37.9926 31.7309 38.3752 31.3431 38.7403 30.9385C38.7751 30.9048 38.7577 30.8373 38.7751 30.753C37.6275 30.4495 36.4973 30.1629 35.3497 29.8763C35.2106 29.8426 34.9671 29.9269 34.8976 30.028C33.4196 32.1524 31.2461 32.8943 28.7249 32.8943C27.3512 32.8943 25.995 32.8943 24.6213 32.9111C24.204 32.9111 24.0823 32.7931 24.0997 32.4053C24.1171 30.6687 24.1171 28.9321 24.1171 27.2124C24.1171 26.8077 24.2736 26.5211 24.5865 26.2513C26.8296 24.1775 29.0726 22.1037 31.2983 20.0131C32.1503 19.2206 32.6545 18.209 33.0197 17.1637C34.0977 14.0951 36.393 12.3585 39.5402 11.6672C41.0355 11.33 42.6004 11.2963 44.1306 11.1108C44.6696 11.0434 44.8087 11.2963 44.8435 11.7853C45.1217 15.3933 45.0522 19.0014 44.7218 22.5927C44.3914 26.167 43.6263 29.6234 41.6615 32.7257C39.6967 35.7943 37.0885 38.1715 33.6109 39.5541C32.0981 40.1442 30.5158 40.4983 28.8987 40.5994C28.6379 40.6163 28.3423 40.768 28.1511 40.9366C26.9861 42.0157 25.8559 43.1116 24.7256 44.2075C24.5344 44.3761 24.3779 44.4941 24.1345 44.7133Z" fill="url(#paint2_linear_90_159)"/>
<path d="M22.7434 0C24.8995 2.34357 27.2121 4.56913 29.1596 7.06444C31.5939 10.1667 31.3852 14.8876 28.9509 17.9224C28.2728 18.7655 27.4034 19.4736 26.6209 20.2154C25.4038 21.3619 24.1692 22.4916 22.9521 23.6212C22.8304 23.7392 22.6913 23.8404 22.5 24.009C22.5 15.9667 22.5 8.00862 22.5 0.067441C22.5869 0.0505807 22.6739 0.0168602 22.7434 0Z" fill="url(#paint3_linear_90_159)"/>
</g>
<path d="M70.0469 21.082V27.8438C69.7812 28.1641 69.3711 28.5117 68.8164 28.8867C68.2617 29.2539 67.5469 29.5703 66.6719 29.8359C65.7969 30.1016 64.7383 30.2344 63.4961 30.2344C62.3945 30.2344 61.3906 30.0547 60.4844 29.6953C59.5781 29.3281 58.7969 28.793 58.1406 28.0898C57.4922 27.3867 56.9922 26.5273 56.6406 25.5117C56.2891 24.4883 56.1133 23.3203 56.1133 22.0078V20.9414C56.1133 19.6289 56.2812 18.4609 56.6172 17.4375C56.9609 16.4141 57.4492 15.5508 58.082 14.8477C58.7148 14.1445 59.4688 13.6094 60.3438 13.2422C61.2188 12.875 62.1914 12.6914 63.2617 12.6914C64.7461 12.6914 65.9648 12.9336 66.918 13.418C67.8711 13.8945 68.5977 14.5586 69.0977 15.4102C69.6055 16.2539 69.918 17.2227 70.0352 18.3164H66.625C66.5391 17.7383 66.375 17.2344 66.1328 16.8047C65.8906 16.375 65.543 16.0391 65.0898 15.7969C64.6445 15.5547 64.0664 15.4336 63.3555 15.4336C62.7695 15.4336 62.2461 15.5547 61.7852 15.7969C61.332 16.0312 60.9492 16.3789 60.6367 16.8398C60.3242 17.3008 60.0859 17.8711 59.9219 18.5508C59.7578 19.2305 59.6758 20.0195 59.6758 20.918V22.0078C59.6758 22.8984 59.7617 23.6875 59.9336 24.375C60.1055 25.0547 60.3594 25.6289 60.6953 26.0977C61.0391 26.5586 61.4609 26.9062 61.9609 27.1406C62.4609 27.375 63.043 27.4922 63.707 27.4922C64.2617 27.4922 64.7227 27.4453 65.0898 27.3516C65.4648 27.2578 65.7656 27.1445 65.9922 27.0117C66.2266 26.8711 66.4062 26.7383 66.5312 26.6133V23.5898H63.3203V21.082H70.0469ZM76.0469 20.0859V30H72.6719V17.3203H75.8477L76.0469 20.0859ZM79.8672 17.2383L79.8086 20.3672C79.6445 20.3438 79.4453 20.3242 79.2109 20.3086C78.9844 20.2852 78.7773 20.2734 78.5898 20.2734C78.1133 20.2734 77.6992 20.3359 77.3477 20.4609C77.0039 20.5781 76.7148 20.7539 76.4805 20.9883C76.2539 21.2227 76.082 21.5078 75.9648 21.8438C75.8555 22.1797 75.793 22.5625 75.7773 22.9922L75.0977 22.7812C75.0977 21.9609 75.1797 21.207 75.3438 20.5195C75.5078 19.8242 75.7461 19.2188 76.0586 18.7031C76.3789 18.1875 76.7695 17.7891 77.2305 17.5078C77.6914 17.2266 78.2188 17.0859 78.8125 17.0859C79 17.0859 79.1914 17.1016 79.3867 17.1328C79.582 17.1562 79.7422 17.1914 79.8672 17.2383ZM87.0625 30.2344C86.0781 30.2344 85.1953 30.0781 84.4141 29.7656C83.6328 29.4453 82.9688 29.0039 82.4219 28.4414C81.8828 27.8789 81.4688 27.2266 81.1797 26.4844C80.8906 25.7344 80.7461 24.9375 80.7461 24.0938V23.625C80.7461 22.6641 80.8828 21.7852 81.1562 20.9883C81.4297 20.1914 81.8203 19.5 82.3281 18.9141C82.8438 18.3281 83.4688 17.8789 84.2031 17.5664C84.9375 17.2461 85.7656 17.0859 86.6875 17.0859C87.5859 17.0859 88.3828 17.2344 89.0781 17.5312C89.7734 17.8281 90.3555 18.25 90.8242 18.7969C91.3008 19.3438 91.6602 20 91.9023 20.7656C92.1445 21.5234 92.2656 22.3672 92.2656 23.2969V24.7031H82.1875V22.4531H88.9492V22.1953C88.9492 21.7266 88.8633 21.3086 88.6914 20.9414C88.5273 20.5664 88.2773 20.2695 87.9414 20.0508C87.6055 19.832 87.1758 19.7227 86.6523 19.7227C86.207 19.7227 85.8242 19.8203 85.5039 20.0156C85.1836 20.2109 84.9219 20.4844 84.7188 20.8359C84.5234 21.1875 84.375 21.6016 84.2734 22.0781C84.1797 22.5469 84.1328 23.0625 84.1328 23.625V24.0938C84.1328 24.6016 84.2031 25.0703 84.3438 25.5C84.4922 25.9297 84.6992 26.3008 84.9648 26.6133C85.2383 26.9258 85.5664 27.168 85.9492 27.3398C86.3398 27.5117 86.7812 27.5977 87.2734 27.5977C87.8828 27.5977 88.4492 27.4805 88.9727 27.2461C89.5039 27.0039 89.9609 26.6406 90.3438 26.1562L91.9844 27.9375C91.7188 28.3203 91.3555 28.6875 90.8945 29.0391C90.4414 29.3906 89.8945 29.6797 89.2539 29.9062C88.6133 30.125 87.8828 30.2344 87.0625 30.2344ZM100.023 30.2344C99.0391 30.2344 98.1562 30.0781 97.375 29.7656C96.5938 29.4453 95.9297 29.0039 95.3828 28.4414C94.8438 27.8789 94.4297 27.2266 94.1406 26.4844C93.8516 25.7344 93.707 24.9375 93.707 24.0938V23.625C93.707 22.6641 93.8438 21.7852 94.1172 20.9883C94.3906 20.1914 94.7812 19.5 95.2891 18.9141C95.8047 18.3281 96.4297 17.8789 97.1641 17.5664C97.8984 17.2461 98.7266 17.0859 99.6484 17.0859C100.547 17.0859 101.344 17.2344 102.039 17.5312C102.734 17.8281 103.316 18.25 103.785 18.7969C104.262 19.3438 104.621 20 104.863 20.7656C105.105 21.5234 105.227 22.3672 105.227 23.2969V24.7031H95.1484V22.4531H101.91V22.1953C101.91 21.7266 101.824 21.3086 101.652 20.9414C101.488 20.5664 101.238 20.2695 100.902 20.0508C100.566 19.832 100.137 19.7227 99.6133 19.7227C99.168 19.7227 98.7852 19.8203 98.4648 20.0156C98.1445 20.2109 97.8828 20.4844 97.6797 20.8359C97.4844 21.1875 97.3359 21.6016 97.2344 22.0781C97.1406 22.5469 97.0938 23.0625 97.0938 23.625V24.0938C97.0938 24.6016 97.1641 25.0703 97.3047 25.5C97.4531 25.9297 97.6602 26.3008 97.9258 26.6133C98.1992 26.9258 98.5273 27.168 98.9102 27.3398C99.3008 27.5117 99.7422 27.5977 100.234 27.5977C100.844 27.5977 101.41 27.4805 101.934 27.2461C102.465 27.0039 102.922 26.6406 103.305 26.1562L104.945 27.9375C104.68 28.3203 104.316 28.6875 103.855 29.0391C103.402 29.3906 102.855 29.6797 102.215 29.9062C101.574 30.125 100.844 30.2344 100.023 30.2344ZM110.453 20.0273V30H107.078V17.3203H110.242L110.453 20.0273ZM109.961 23.2148H109.047C109.047 22.2773 109.168 21.4336 109.41 20.6836C109.652 19.9258 109.992 19.2812 110.43 18.75C110.867 18.2109 111.387 17.8008 111.988 17.5195C112.598 17.2305 113.277 17.0859 114.027 17.0859C114.621 17.0859 115.164 17.1719 115.656 17.3438C116.148 17.5156 116.57 17.7891 116.922 18.1641C117.281 18.5391 117.555 19.0352 117.742 19.6523C117.938 20.2695 118.035 21.0234 118.035 21.9141V30H114.637V21.9023C114.637 21.3398 114.559 20.9023 114.402 20.5898C114.246 20.2773 114.016 20.0586 113.711 19.9336C113.414 19.8008 113.047 19.7344 112.609 19.7344C112.156 19.7344 111.762 19.8242 111.426 20.0039C111.098 20.1836 110.824 20.4336 110.605 20.7539C110.395 21.0664 110.234 21.4336 110.125 21.8555C110.016 22.2773 109.961 22.7305 109.961 23.2148ZM129.695 25.5352C129.695 25.2305 129.648 24.957 129.555 24.7148C129.469 24.4648 129.305 24.2383 129.062 24.0352C128.82 23.8242 128.48 23.6172 128.043 23.4141C127.605 23.2109 127.039 23 126.344 22.7812C125.57 22.5312 124.836 22.25 124.141 21.9375C123.453 21.625 122.844 21.2617 122.312 20.8477C121.789 20.4258 121.375 19.9375 121.07 19.3828C120.773 18.8281 120.625 18.1836 120.625 17.4492C120.625 16.7383 120.781 16.0938 121.094 15.5156C121.406 14.9297 121.844 14.4297 122.406 14.0156C122.969 13.5938 123.633 13.2695 124.398 13.043C125.172 12.8164 126.02 12.7031 126.941 12.7031C128.199 12.7031 129.297 12.9297 130.234 13.3828C131.172 13.8359 131.898 14.457 132.414 15.2461C132.938 16.0352 133.199 16.9375 133.199 17.9531H129.707C129.707 17.4531 129.602 17.0156 129.391 16.6406C129.188 16.2578 128.875 15.957 128.453 15.7383C128.039 15.5195 127.516 15.4102 126.883 15.4102C126.273 15.4102 125.766 15.5039 125.359 15.6914C124.953 15.8711 124.648 16.1172 124.445 16.4297C124.242 16.7344 124.141 17.0781 124.141 17.4609C124.141 17.75 124.211 18.0117 124.352 18.2461C124.5 18.4805 124.719 18.6992 125.008 18.9023C125.297 19.1055 125.652 19.2969 126.074 19.4766C126.496 19.6562 126.984 19.832 127.539 20.0039C128.469 20.2852 129.285 20.6016 129.988 20.9531C130.699 21.3047 131.293 21.6992 131.77 22.1367C132.246 22.5742 132.605 23.0703 132.848 23.625C133.09 24.1797 133.211 24.8086 133.211 25.5117C133.211 26.2539 133.066 26.918 132.777 27.5039C132.488 28.0898 132.07 28.5859 131.523 28.9922C130.977 29.3984 130.324 29.707 129.566 29.918C128.809 30.1289 127.961 30.2344 127.023 30.2344C126.18 30.2344 125.348 30.125 124.527 29.9062C123.707 29.6797 122.961 29.3398 122.289 28.8867C121.625 28.4336 121.094 27.8555 120.695 27.1523C120.297 26.4492 120.098 25.6172 120.098 24.6562H123.625C123.625 25.1875 123.707 25.6367 123.871 26.0039C124.035 26.3711 124.266 26.668 124.562 26.8945C124.867 27.1211 125.227 27.2852 125.641 27.3867C126.062 27.4883 126.523 27.5391 127.023 27.5391C127.633 27.5391 128.133 27.4531 128.523 27.2812C128.922 27.1094 129.215 26.8711 129.402 26.5664C129.598 26.2617 129.695 25.918 129.695 25.5352ZM139.012 26.7188L141.648 17.3203H143.793L143.102 21.0117L140.465 30H138.672L139.012 26.7188ZM137.676 17.3203L139.562 26.707L139.738 30H137.629L134.418 17.3203H137.676ZM146.207 26.5547L148.047 17.3203H151.316L148.105 30H146.008L146.207 26.5547ZM144.086 17.3203L146.711 26.6484L147.074 30H145.27L142.633 21.0234L141.965 17.3203H144.086ZM159.859 27.1406V21.4922C159.859 21.0859 159.793 20.7383 159.66 20.4492C159.527 20.1523 159.32 19.9219 159.039 19.7578C158.766 19.5938 158.41 19.5117 157.973 19.5117C157.598 19.5117 157.273 19.5781 157 19.7109C156.727 19.8359 156.516 20.0195 156.367 20.2617C156.219 20.4961 156.145 20.7734 156.145 21.0938H152.77C152.77 20.5547 152.895 20.043 153.145 19.5586C153.395 19.0742 153.758 18.6484 154.234 18.2812C154.711 17.9062 155.277 17.6133 155.934 17.4023C156.598 17.1914 157.34 17.0859 158.16 17.0859C159.145 17.0859 160.02 17.25 160.785 17.5781C161.551 17.9062 162.152 18.3984 162.59 19.0547C163.035 19.7109 163.258 20.5312 163.258 21.5156V26.9414C163.258 27.6367 163.301 28.207 163.387 28.6523C163.473 29.0898 163.598 29.4727 163.762 29.8008V30H160.352C160.188 29.6562 160.062 29.2266 159.977 28.7109C159.898 28.1875 159.859 27.6641 159.859 27.1406ZM160.305 22.2773L160.328 24.1875H158.441C157.996 24.1875 157.609 24.2383 157.281 24.3398C156.953 24.4414 156.684 24.5859 156.473 24.7734C156.262 24.9531 156.105 25.1641 156.004 25.4062C155.91 25.6484 155.863 25.9141 155.863 26.2031C155.863 26.4922 155.93 26.7539 156.062 26.9883C156.195 27.2148 156.387 27.3945 156.637 27.5273C156.887 27.6523 157.18 27.7148 157.516 27.7148C158.023 27.7148 158.465 27.6133 158.84 27.4102C159.215 27.207 159.504 26.957 159.707 26.6602C159.918 26.3633 160.027 26.082 160.035 25.8164L160.926 27.2461C160.801 27.5664 160.629 27.8984 160.41 28.2422C160.199 28.5859 159.93 28.9102 159.602 29.2148C159.273 29.5117 158.879 29.7578 158.418 29.9531C157.957 30.1406 157.41 30.2344 156.777 30.2344C155.973 30.2344 155.242 30.0742 154.586 29.7539C153.938 29.4258 153.422 28.9766 153.039 28.4062C152.664 27.8281 152.477 27.1719 152.477 26.4375C152.477 25.7734 152.602 25.1836 152.852 24.668C153.102 24.1523 153.469 23.7188 153.953 23.3672C154.445 23.0078 155.059 22.7383 155.793 22.5586C156.527 22.3711 157.379 22.2773 158.348 22.2773H160.305ZM169.234 19.7578V34.875H165.859V17.3203H168.988L169.234 19.7578ZM177.262 23.5195V23.7656C177.262 24.6875 177.152 25.543 176.934 26.332C176.723 27.1211 176.41 27.8086 175.996 28.3945C175.582 28.9727 175.066 29.4258 174.449 29.7539C173.84 30.0742 173.137 30.2344 172.34 30.2344C171.566 30.2344 170.895 30.0781 170.324 29.7656C169.754 29.4531 169.273 29.0156 168.883 28.4531C168.5 27.8828 168.191 27.2227 167.957 26.4727C167.723 25.7227 167.543 24.918 167.418 24.0586V23.4141C167.543 22.4922 167.723 21.6484 167.957 20.8828C168.191 20.1094 168.5 19.4414 168.883 18.8789C169.273 18.3086 169.75 17.8672 170.312 17.5547C170.883 17.2422 171.551 17.0859 172.316 17.0859C173.121 17.0859 173.828 17.2383 174.438 17.543C175.055 17.8477 175.57 18.2852 175.984 18.8555C176.406 19.4258 176.723 20.1055 176.934 20.8945C177.152 21.6836 177.262 22.5586 177.262 23.5195ZM173.875 23.7656V23.5195C173.875 22.9805 173.828 22.4844 173.734 22.0312C173.648 21.5703 173.508 21.168 173.312 20.8242C173.125 20.4805 172.875 20.2148 172.562 20.0273C172.258 19.832 171.887 19.7344 171.449 19.7344C170.988 19.7344 170.594 19.8086 170.266 19.957C169.945 20.1055 169.684 20.3203 169.48 20.6016C169.277 20.8828 169.125 21.2188 169.023 21.6094C168.922 22 168.859 22.4414 168.836 22.9336V24.5625C168.875 25.1406 168.984 25.6602 169.164 26.1211C169.344 26.5742 169.621 26.9336 169.996 27.1992C170.371 27.4648 170.863 27.5977 171.473 27.5977C171.918 27.5977 172.293 27.5 172.598 27.3047C172.902 27.1016 173.148 26.8242 173.336 26.4727C173.531 26.1211 173.668 25.7148 173.746 25.2539C173.832 24.793 173.875 24.2969 173.875 23.7656Z" fill="#48C461"/>
<defs>
<linearGradient id="paint0_linear_90_159" x1="10.4592" y1="44.9917" x2="10.4592" y2="11.4002" gradientUnits="userSpaceOnUse">
<stop stop-color="#297E3B"/>
<stop offset="0.0170804" stop-color="#2D813C"/>
<stop offset="0.2117" stop-color="#50A449"/>
<stop offset="0.4081" stop-color="#6CC053"/>
<stop offset="0.6047" stop-color="#80D35A"/>
<stop offset="0.8017" stop-color="#8CDF5F"/>
<stop offset="1" stop-color="#90E360"/>
</linearGradient>
<linearGradient id="paint1_linear_90_159" x1="18.2974" y1="24.3007" x2="18.2974" y2="0.283333" gradientUnits="userSpaceOnUse">
<stop stop-color="#297E3B"/>
<stop offset="0.0170804" stop-color="#2D813C"/>
<stop offset="0.2117" stop-color="#50A449"/>
<stop offset="0.4081" stop-color="#6CC053"/>
<stop offset="0.6047" stop-color="#80D35A"/>
<stop offset="0.8017" stop-color="#8CDF5F"/>
<stop offset="1" stop-color="#90E360"/>
</linearGradient>
<linearGradient id="paint2_linear_90_159" x1="20.3986" y1="41.094" x2="47.0661" y2="13.5919" gradientUnits="userSpaceOnUse">
<stop stop-color="#297E3B"/>
<stop offset="0.4471" stop-color="#2B803C"/>
<stop offset="0.6081" stop-color="#32863E"/>
<stop offset="0.7229" stop-color="#3D9242"/>
<stop offset="0.8157" stop-color="#4EA348"/>
<stop offset="0.8952" stop-color="#64B850"/>
<stop offset="0.9643" stop-color="#7FD25A"/>
<stop offset="1" stop-color="#90E360"/>
</linearGradient>
<linearGradient id="paint3_linear_90_159" x1="16.3964" y1="18.0997" x2="28.5213" y2="5.59532" gradientUnits="userSpaceOnUse">
<stop stop-color="#297E3B"/>
<stop offset="0.4471" stop-color="#2B803C"/>
<stop offset="0.6081" stop-color="#32863E"/>
<stop offset="0.7229" stop-color="#3D9242"/>
<stop offset="0.8157" stop-color="#4EA348"/>
<stop offset="0.8952" stop-color="#64B850"/>
<stop offset="0.9643" stop-color="#7FD25A"/>
<stop offset="1" stop-color="#90E360"/>
</linearGradient>
<clipPath id="clip0_90_159">
<rect width="45" height="45" fill="white"/>
</clipPath>
</defs>
</svg>
