<svg width="218" height="45" viewBox="0 0 218 45" fill="none" xmlns="http://www.w3.org/2000/svg">
<g clip-path="url(#clip0_329_957)">
<path d="M20.8656 44.9999C20.8656 42.0325 20.8656 39.1663 20.8656 36.2326C20.0136 36.2326 19.2137 36.2663 18.4139 36.2326C16.849 36.1652 15.2667 36.1989 13.7365 35.9629C11.1805 35.5751 9.11133 34.2262 7.37254 32.4053C7.00739 32.0176 6.62486 31.6298 6.25971 31.2251C6.22493 31.1914 6.24232 31.124 6.22493 31.0397C7.37254 30.7362 8.50275 30.4495 9.65036 30.1629C9.78946 30.1292 10.0329 30.2135 10.1024 30.3147C11.5804 32.4391 13.7539 33.1809 16.2752 33.1809C17.6488 33.1809 19.0051 33.1809 20.3787 33.1978C20.796 33.1978 20.9177 33.0797 20.9004 32.692C20.883 30.9554 20.883 29.2188 20.883 27.499C20.883 27.0944 20.7265 26.8077 20.4135 26.538C18.1705 24.4642 15.9274 22.3904 13.7018 20.2997C12.8497 19.5072 12.3455 18.4956 11.9803 17.4503C10.9197 14.3817 8.62447 12.6451 5.47725 11.9539C3.98189 11.6167 2.41697 11.5829 0.886835 11.3975C0.347809 11.33 0.208705 11.5829 0.17393 12.0719C-0.104278 15.68 -0.0347257 19.2881 0.295645 22.8793C0.626016 26.4537 1.39109 29.91 3.35592 33.0123C5.32076 36.0809 7.92895 38.4582 11.4065 39.8407C12.9193 40.4308 14.5016 40.7849 16.1187 40.886C16.3795 40.9029 16.6751 41.0546 16.8664 41.2232C18.0313 42.3023 19.1616 43.3982 20.2918 44.4941C20.4657 44.6459 20.6222 44.7808 20.8656 44.9999Z" fill="url(#paint0_linear_329_957)"/>
<path d="M22.2392 0.286621C20.1005 2.6302 17.7705 4.85575 15.823 7.35106C13.3887 10.4534 13.5974 15.1742 16.0317 18.2091C16.7098 19.0521 17.5792 19.7602 18.3617 20.5021C19.5788 21.6486 20.8134 22.7782 22.0305 23.9078C22.1522 24.0259 22.2913 24.127 22.4826 24.2956C22.4826 16.2533 22.4826 8.29524 22.4826 0.354062C22.4131 0.337202 22.3261 0.303481 22.2392 0.286621Z" fill="url(#paint1_linear_329_957)"/>
<path d="M24.1345 44.7133C24.1345 41.7459 24.1345 38.8797 24.1345 35.946C24.9865 35.946 25.7864 35.9797 26.5862 35.946C28.1511 35.8785 29.7334 35.9123 31.2636 35.6762C33.8196 35.2884 35.8888 33.9396 37.6276 32.1187C37.9927 31.7309 38.3752 31.3431 38.7404 30.9385C38.7752 30.9048 38.7578 30.8373 38.7752 30.753C37.6276 30.4495 36.4973 30.1629 35.3497 29.8763C35.2106 29.8426 34.9672 29.9269 34.8976 30.028C33.4197 32.1524 31.2462 32.8943 28.7249 32.8943C27.3513 32.8943 25.995 32.8943 24.6214 32.9111C24.2041 32.9111 24.0824 32.7931 24.0997 32.4053C24.1171 30.6687 24.1171 28.9321 24.1171 27.2124C24.1171 26.8077 24.2736 26.5211 24.5866 26.2513C26.8296 24.1775 29.0727 22.1037 31.2983 20.0131C32.1504 19.2206 32.6546 18.209 33.0198 17.1637C34.0978 14.0951 36.393 12.3585 39.5402 11.6672C41.0356 11.33 42.6005 11.2963 44.1306 11.1108C44.6697 11.0434 44.8088 11.2963 44.8436 11.7853C45.1218 15.3933 45.0522 19.0014 44.7218 22.5927C44.3915 26.167 43.6264 29.6234 41.6616 32.7257C39.6967 35.7943 37.0885 38.1715 33.6109 39.5541C32.0982 40.1442 30.5159 40.4983 28.8988 40.5994C28.638 40.6163 28.3424 40.768 28.1511 40.9366C26.9861 42.0157 25.8559 43.1116 24.7257 44.2075C24.5344 44.3761 24.3779 44.4941 24.1345 44.7133Z" fill="url(#paint2_linear_329_957)"/>
<path d="M22.7434 0C24.8995 2.34357 27.2121 4.56913 29.1596 7.06444C31.5939 10.1667 31.3852 14.8876 28.9509 17.9224C28.2728 18.7655 27.4034 19.4736 26.6209 20.2154C25.4038 21.3619 24.1692 22.4916 22.9521 23.6212C22.8304 23.7392 22.6913 23.8404 22.5 24.009C22.5 15.9667 22.5 8.00862 22.5 0.067441C22.5869 0.0505807 22.6739 0.0168602 22.7434 0Z" fill="url(#paint3_linear_329_957)"/>
</g>
<path d="M70.0469 21.082V27.8438C69.7812 28.1641 69.3711 28.5117 68.8164 28.8867C68.2617 29.2539 67.5469 29.5703 66.6719 29.8359C65.7969 30.1016 64.7383 30.2344 63.4961 30.2344C62.3945 30.2344 61.3906 30.0547 60.4844 29.6953C59.5781 29.3281 58.7969 28.793 58.1406 28.0898C57.4922 27.3867 56.9922 26.5273 56.6406 25.5117C56.2891 24.4883 56.1133 23.3203 56.1133 22.0078V20.9414C56.1133 19.6289 56.2812 18.4609 56.6172 17.4375C56.9609 16.4141 57.4492 15.5508 58.082 14.8477C58.7148 14.1445 59.4688 13.6094 60.3438 13.2422C61.2188 12.875 62.1914 12.6914 63.2617 12.6914C64.7461 12.6914 65.9648 12.9336 66.918 13.418C67.8711 13.8945 68.5977 14.5586 69.0977 15.4102C69.6055 16.2539 69.918 17.2227 70.0352 18.3164H66.625C66.5391 17.7383 66.375 17.2344 66.1328 16.8047C65.8906 16.375 65.543 16.0391 65.0898 15.7969C64.6445 15.5547 64.0664 15.4336 63.3555 15.4336C62.7695 15.4336 62.2461 15.5547 61.7852 15.7969C61.332 16.0312 60.9492 16.3789 60.6367 16.8398C60.3242 17.3008 60.0859 17.8711 59.9219 18.5508C59.7578 19.2305 59.6758 20.0195 59.6758 20.918V22.0078C59.6758 22.8984 59.7617 23.6875 59.9336 24.375C60.1055 25.0547 60.3594 25.6289 60.6953 26.0977C61.0391 26.5586 61.4609 26.9062 61.9609 27.1406C62.4609 27.375 63.043 27.4922 63.707 27.4922C64.2617 27.4922 64.7227 27.4453 65.0898 27.3516C65.4648 27.2578 65.7656 27.1445 65.9922 27.0117C66.2266 26.8711 66.4062 26.7383 66.5312 26.6133V23.5898H63.3203V21.082H70.0469ZM76.0469 20.0859V30H72.6719V17.3203H75.8477L76.0469 20.0859ZM79.8672 17.2383L79.8086 20.3672C79.6445 20.3438 79.4453 20.3242 79.2109 20.3086C78.9844 20.2852 78.7773 20.2734 78.5898 20.2734C78.1133 20.2734 77.6992 20.3359 77.3477 20.4609C77.0039 20.5781 76.7148 20.7539 76.4805 20.9883C76.2539 21.2227 76.082 21.5078 75.9648 21.8438C75.8555 22.1797 75.793 22.5625 75.7773 22.9922L75.0977 22.7812C75.0977 21.9609 75.1797 21.207 75.3438 20.5195C75.5078 19.8242 75.7461 19.2188 76.0586 18.7031C76.3789 18.1875 76.7695 17.7891 77.2305 17.5078C77.6914 17.2266 78.2188 17.0859 78.8125 17.0859C79 17.0859 79.1914 17.1016 79.3867 17.1328C79.582 17.1562 79.7422 17.1914 79.8672 17.2383ZM87.0625 30.2344C86.0781 30.2344 85.1953 30.0781 84.4141 29.7656C83.6328 29.4453 82.9688 29.0039 82.4219 28.4414C81.8828 27.8789 81.4688 27.2266 81.1797 26.4844C80.8906 25.7344 80.7461 24.9375 80.7461 24.0938V23.625C80.7461 22.6641 80.8828 21.7852 81.1562 20.9883C81.4297 20.1914 81.8203 19.5 82.3281 18.9141C82.8438 18.3281 83.4688 17.8789 84.2031 17.5664C84.9375 17.2461 85.7656 17.0859 86.6875 17.0859C87.5859 17.0859 88.3828 17.2344 89.0781 17.5312C89.7734 17.8281 90.3555 18.25 90.8242 18.7969C91.3008 19.3438 91.6602 20 91.9023 20.7656C92.1445 21.5234 92.2656 22.3672 92.2656 23.2969V24.7031H82.1875V22.4531H88.9492V22.1953C88.9492 21.7266 88.8633 21.3086 88.6914 20.9414C88.5273 20.5664 88.2773 20.2695 87.9414 20.0508C87.6055 19.832 87.1758 19.7227 86.6523 19.7227C86.207 19.7227 85.8242 19.8203 85.5039 20.0156C85.1836 20.2109 84.9219 20.4844 84.7188 20.8359C84.5234 21.1875 84.375 21.6016 84.2734 22.0781C84.1797 22.5469 84.1328 23.0625 84.1328 23.625V24.0938C84.1328 24.6016 84.2031 25.0703 84.3438 25.5C84.4922 25.9297 84.6992 26.3008 84.9648 26.6133C85.2383 26.9258 85.5664 27.168 85.9492 27.3398C86.3398 27.5117 86.7812 27.5977 87.2734 27.5977C87.8828 27.5977 88.4492 27.4805 88.9727 27.2461C89.5039 27.0039 89.9609 26.6406 90.3438 26.1562L91.9844 27.9375C91.7188 28.3203 91.3555 28.6875 90.8945 29.0391C90.4414 29.3906 89.8945 29.6797 89.2539 29.9062C88.6133 30.125 87.8828 30.2344 87.0625 30.2344ZM100.023 30.2344C99.0391 30.2344 98.1562 30.0781 97.375 29.7656C96.5938 29.4453 95.9297 29.0039 95.3828 28.4414C94.8438 27.8789 94.4297 27.2266 94.1406 26.4844C93.8516 25.7344 93.707 24.9375 93.707 24.0938V23.625C93.707 22.6641 93.8438 21.7852 94.1172 20.9883C94.3906 20.1914 94.7812 19.5 95.2891 18.9141C95.8047 18.3281 96.4297 17.8789 97.1641 17.5664C97.8984 17.2461 98.7266 17.0859 99.6484 17.0859C100.547 17.0859 101.344 17.2344 102.039 17.5312C102.734 17.8281 103.316 18.25 103.785 18.7969C104.262 19.3438 104.621 20 104.863 20.7656C105.105 21.5234 105.227 22.3672 105.227 23.2969V24.7031H95.1484V22.4531H101.91V22.1953C101.91 21.7266 101.824 21.3086 101.652 20.9414C101.488 20.5664 101.238 20.2695 100.902 20.0508C100.566 19.832 100.137 19.7227 99.6133 19.7227C99.168 19.7227 98.7852 19.8203 98.4648 20.0156C98.1445 20.2109 97.8828 20.4844 97.6797 20.8359C97.4844 21.1875 97.3359 21.6016 97.2344 22.0781C97.1406 22.5469 97.0938 23.0625 97.0938 23.625V24.0938C97.0938 24.6016 97.1641 25.0703 97.3047 25.5C97.4531 25.9297 97.6602 26.3008 97.9258 26.6133C98.1992 26.9258 98.5273 27.168 98.9102 27.3398C99.3008 27.5117 99.7422 27.5977 100.234 27.5977C100.844 27.5977 101.41 27.4805 101.934 27.2461C102.465 27.0039 102.922 26.6406 103.305 26.1562L104.945 27.9375C104.68 28.3203 104.316 28.6875 103.855 29.0391C103.402 29.3906 102.855 29.6797 102.215 29.9062C101.574 30.125 100.844 30.2344 100.023 30.2344ZM110.453 20.0273V30H107.078V17.3203H110.242L110.453 20.0273ZM109.961 23.2148H109.047C109.047 22.2773 109.168 21.4336 109.41 20.6836C109.652 19.9258 109.992 19.2812 110.43 18.75C110.867 18.2109 111.387 17.8008 111.988 17.5195C112.598 17.2305 113.277 17.0859 114.027 17.0859C114.621 17.0859 115.164 17.1719 115.656 17.3438C116.148 17.5156 116.57 17.7891 116.922 18.1641C117.281 18.5391 117.555 19.0352 117.742 19.6523C117.938 20.2695 118.035 21.0234 118.035 21.9141V30H114.637V21.9023C114.637 21.3398 114.559 20.9023 114.402 20.5898C114.246 20.2773 114.016 20.0586 113.711 19.9336C113.414 19.8008 113.047 19.7344 112.609 19.7344C112.156 19.7344 111.762 19.8242 111.426 20.0039C111.098 20.1836 110.824 20.4336 110.605 20.7539C110.395 21.0664 110.234 21.4336 110.125 21.8555C110.016 22.2773 109.961 22.7305 109.961 23.2148ZM132.262 27.2578V30H123.18V27.2578H132.262ZM124.328 12.9375V30H120.812V12.9375H124.328ZM131.078 19.8867V22.5586H123.18V19.8867H131.078ZM132.25 12.9375V15.6914H123.18V12.9375H132.25ZM139.105 27.5977C139.52 27.5977 139.887 27.5195 140.207 27.3633C140.527 27.1992 140.777 26.9727 140.957 26.6836C141.145 26.3867 141.242 26.0391 141.25 25.6406H144.426C144.418 26.5312 144.18 27.3242 143.711 28.0195C143.242 28.707 142.613 29.25 141.824 29.6484C141.035 30.0391 140.152 30.2344 139.176 30.2344C138.191 30.2344 137.332 30.0703 136.598 29.7422C135.871 29.4141 135.266 28.9609 134.781 28.3828C134.297 27.7969 133.934 27.1172 133.691 26.3438C133.449 25.5625 133.328 24.7266 133.328 23.8359V23.4961C133.328 22.5977 133.449 21.7617 133.691 20.9883C133.934 20.207 134.297 19.5273 134.781 18.9492C135.266 18.3633 135.871 17.9062 136.598 17.5781C137.324 17.25 138.176 17.0859 139.152 17.0859C140.191 17.0859 141.102 17.2852 141.883 17.6836C142.672 18.082 143.289 18.6523 143.734 19.3945C144.188 20.1289 144.418 21 144.426 22.0078H141.25C141.242 21.5859 141.152 21.2031 140.98 20.8594C140.816 20.5156 140.574 20.2422 140.254 20.0391C139.941 19.8281 139.555 19.7227 139.094 19.7227C138.602 19.7227 138.199 19.8281 137.887 20.0391C137.574 20.2422 137.332 20.5234 137.16 20.8828C136.988 21.2344 136.867 21.6367 136.797 22.0898C136.734 22.5352 136.703 23.0039 136.703 23.4961V23.8359C136.703 24.3281 136.734 24.8008 136.797 25.2539C136.859 25.707 136.977 26.1094 137.148 26.4609C137.328 26.8125 137.574 27.0898 137.887 27.293C138.199 27.4961 138.605 27.5977 139.105 27.5977ZM145.844 23.7891V23.543C145.844 22.6133 145.977 21.7578 146.242 20.9766C146.508 20.1875 146.895 19.5039 147.402 18.9258C147.91 18.3477 148.535 17.8984 149.277 17.5781C150.02 17.25 150.871 17.0859 151.832 17.0859C152.793 17.0859 153.648 17.25 154.398 17.5781C155.148 17.8984 155.777 18.3477 156.285 18.9258C156.801 19.5039 157.191 20.1875 157.457 20.9766C157.723 21.7578 157.855 22.6133 157.855 23.543V23.7891C157.855 24.7109 157.723 25.5664 157.457 26.3555C157.191 27.1367 156.801 27.8203 156.285 28.4062C155.777 28.9844 155.152 29.4336 154.41 29.7539C153.668 30.0742 152.816 30.2344 151.855 30.2344C150.895 30.2344 150.039 30.0742 149.289 29.7539C148.547 29.4336 147.918 28.9844 147.402 28.4062C146.895 27.8203 146.508 27.1367 146.242 26.3555C145.977 25.5664 145.844 24.7109 145.844 23.7891ZM149.219 23.543V23.7891C149.219 24.3203 149.266 24.8164 149.359 25.2773C149.453 25.7383 149.602 26.1445 149.805 26.4961C150.016 26.8398 150.289 27.1094 150.625 27.3047C150.961 27.5 151.371 27.5977 151.855 27.5977C152.324 27.5977 152.727 27.5 153.062 27.3047C153.398 27.1094 153.668 26.8398 153.871 26.4961C154.074 26.1445 154.223 25.7383 154.316 25.2773C154.418 24.8164 154.469 24.3203 154.469 23.7891V23.543C154.469 23.0273 154.418 22.543 154.316 22.0898C154.223 21.6289 154.07 21.2227 153.859 20.8711C153.656 20.5117 153.387 20.2305 153.051 20.0273C152.715 19.8242 152.309 19.7227 151.832 19.7227C151.355 19.7227 150.949 19.8242 150.613 20.0273C150.285 20.2305 150.016 20.5117 149.805 20.8711C149.602 21.2227 149.453 21.6289 149.359 22.0898C149.266 22.543 149.219 23.0273 149.219 23.543ZM169.023 25.5352C169.023 25.2305 168.977 24.957 168.883 24.7148C168.797 24.4648 168.633 24.2383 168.391 24.0352C168.148 23.8242 167.809 23.6172 167.371 23.4141C166.934 23.2109 166.367 23 165.672 22.7812C164.898 22.5312 164.164 22.25 163.469 21.9375C162.781 21.625 162.172 21.2617 161.641 20.8477C161.117 20.4258 160.703 19.9375 160.398 19.3828C160.102 18.8281 159.953 18.1836 159.953 17.4492C159.953 16.7383 160.109 16.0938 160.422 15.5156C160.734 14.9297 161.172 14.4297 161.734 14.0156C162.297 13.5938 162.961 13.2695 163.727 13.043C164.5 12.8164 165.348 12.7031 166.27 12.7031C167.527 12.7031 168.625 12.9297 169.562 13.3828C170.5 13.8359 171.227 14.457 171.742 15.2461C172.266 16.0352 172.527 16.9375 172.527 17.9531H169.035C169.035 17.4531 168.93 17.0156 168.719 16.6406C168.516 16.2578 168.203 15.957 167.781 15.7383C167.367 15.5195 166.844 15.4102 166.211 15.4102C165.602 15.4102 165.094 15.5039 164.688 15.6914C164.281 15.8711 163.977 16.1172 163.773 16.4297C163.57 16.7344 163.469 17.0781 163.469 17.4609C163.469 17.75 163.539 18.0117 163.68 18.2461C163.828 18.4805 164.047 18.6992 164.336 18.9023C164.625 19.1055 164.98 19.2969 165.402 19.4766C165.824 19.6562 166.312 19.832 166.867 20.0039C167.797 20.2852 168.613 20.6016 169.316 20.9531C170.027 21.3047 170.621 21.6992 171.098 22.1367C171.574 22.5742 171.934 23.0703 172.176 23.625C172.418 24.1797 172.539 24.8086 172.539 25.5117C172.539 26.2539 172.395 26.918 172.105 27.5039C171.816 28.0898 171.398 28.5859 170.852 28.9922C170.305 29.3984 169.652 29.707 168.895 29.918C168.137 30.1289 167.289 30.2344 166.352 30.2344C165.508 30.2344 164.676 30.125 163.855 29.9062C163.035 29.6797 162.289 29.3398 161.617 28.8867C160.953 28.4336 160.422 27.8555 160.023 27.1523C159.625 26.4492 159.426 25.6172 159.426 24.6562H162.953C162.953 25.1875 163.035 25.6367 163.199 26.0039C163.363 26.3711 163.594 26.668 163.891 26.8945C164.195 27.1211 164.555 27.2852 164.969 27.3867C165.391 27.4883 165.852 27.5391 166.352 27.5391C166.961 27.5391 167.461 27.4531 167.852 27.2812C168.25 27.1094 168.543 26.8711 168.73 26.5664C168.926 26.2617 169.023 25.918 169.023 25.5352ZM178.34 26.7188L180.977 17.3203H183.121L182.43 21.0117L179.793 30H178L178.34 26.7188ZM177.004 17.3203L178.891 26.707L179.066 30H176.957L173.746 17.3203H177.004ZM185.535 26.5547L187.375 17.3203H190.645L187.434 30H185.336L185.535 26.5547ZM183.414 17.3203L186.039 26.6484L186.402 30H184.598L181.961 21.0234L181.293 17.3203H183.414ZM199.188 27.1406V21.4922C199.188 21.0859 199.121 20.7383 198.988 20.4492C198.855 20.1523 198.648 19.9219 198.367 19.7578C198.094 19.5938 197.738 19.5117 197.301 19.5117C196.926 19.5117 196.602 19.5781 196.328 19.7109C196.055 19.8359 195.844 20.0195 195.695 20.2617C195.547 20.4961 195.473 20.7734 195.473 21.0938H192.098C192.098 20.5547 192.223 20.043 192.473 19.5586C192.723 19.0742 193.086 18.6484 193.562 18.2812C194.039 17.9062 194.605 17.6133 195.262 17.4023C195.926 17.1914 196.668 17.0859 197.488 17.0859C198.473 17.0859 199.348 17.25 200.113 17.5781C200.879 17.9062 201.48 18.3984 201.918 19.0547C202.363 19.7109 202.586 20.5312 202.586 21.5156V26.9414C202.586 27.6367 202.629 28.207 202.715 28.6523C202.801 29.0898 202.926 29.4727 203.09 29.8008V30H199.68C199.516 29.6562 199.391 29.2266 199.305 28.7109C199.227 28.1875 199.188 27.6641 199.188 27.1406ZM199.633 22.2773L199.656 24.1875H197.77C197.324 24.1875 196.938 24.2383 196.609 24.3398C196.281 24.4414 196.012 24.5859 195.801 24.7734C195.59 24.9531 195.434 25.1641 195.332 25.4062C195.238 25.6484 195.191 25.9141 195.191 26.2031C195.191 26.4922 195.258 26.7539 195.391 26.9883C195.523 27.2148 195.715 27.3945 195.965 27.5273C196.215 27.6523 196.508 27.7148 196.844 27.7148C197.352 27.7148 197.793 27.6133 198.168 27.4102C198.543 27.207 198.832 26.957 199.035 26.6602C199.246 26.3633 199.355 26.082 199.363 25.8164L200.254 27.2461C200.129 27.5664 199.957 27.8984 199.738 28.2422C199.527 28.5859 199.258 28.9102 198.93 29.2148C198.602 29.5117 198.207 29.7578 197.746 29.9531C197.285 30.1406 196.738 30.2344 196.105 30.2344C195.301 30.2344 194.57 30.0742 193.914 29.7539C193.266 29.4258 192.75 28.9766 192.367 28.4062C191.992 27.8281 191.805 27.1719 191.805 26.4375C191.805 25.7734 191.93 25.1836 192.18 24.668C192.43 24.1523 192.797 23.7188 193.281 23.3672C193.773 23.0078 194.387 22.7383 195.121 22.5586C195.855 22.3711 196.707 22.2773 197.676 22.2773H199.633ZM208.562 19.7578V34.875H205.188V17.3203H208.316L208.562 19.7578ZM216.59 23.5195V23.7656C216.59 24.6875 216.48 25.543 216.262 26.332C216.051 27.1211 215.738 27.8086 215.324 28.3945C214.91 28.9727 214.395 29.4258 213.777 29.7539C213.168 30.0742 212.465 30.2344 211.668 30.2344C210.895 30.2344 210.223 30.0781 209.652 29.7656C209.082 29.4531 208.602 29.0156 208.211 28.4531C207.828 27.8828 207.52 27.2227 207.285 26.4727C207.051 25.7227 206.871 24.918 206.746 24.0586V23.4141C206.871 22.4922 207.051 21.6484 207.285 20.8828C207.52 20.1094 207.828 19.4414 208.211 18.8789C208.602 18.3086 209.078 17.8672 209.641 17.5547C210.211 17.2422 210.879 17.0859 211.645 17.0859C212.449 17.0859 213.156 17.2383 213.766 17.543C214.383 17.8477 214.898 18.2852 215.312 18.8555C215.734 19.4258 216.051 20.1055 216.262 20.8945C216.48 21.6836 216.59 22.5586 216.59 23.5195ZM213.203 23.7656V23.5195C213.203 22.9805 213.156 22.4844 213.062 22.0312C212.977 21.5703 212.836 21.168 212.641 20.8242C212.453 20.4805 212.203 20.2148 211.891 20.0273C211.586 19.832 211.215 19.7344 210.777 19.7344C210.316 19.7344 209.922 19.8086 209.594 19.957C209.273 20.1055 209.012 20.3203 208.809 20.6016C208.605 20.8828 208.453 21.2188 208.352 21.6094C208.25 22 208.188 22.4414 208.164 22.9336V24.5625C208.203 25.1406 208.312 25.6602 208.492 26.1211C208.672 26.5742 208.949 26.9336 209.324 27.1992C209.699 27.4648 210.191 27.5977 210.801 27.5977C211.246 27.5977 211.621 27.5 211.926 27.3047C212.23 27.1016 212.477 26.8242 212.664 26.4727C212.859 26.1211 212.996 25.7148 213.074 25.2539C213.16 24.793 213.203 24.2969 213.203 23.7656Z" fill="#297E3B"/>
<defs>
<linearGradient id="paint0_linear_329_957" x1="10.4592" y1="44.9917" x2="10.4592" y2="11.4002" gradientUnits="userSpaceOnUse">
<stop stop-color="#297E3B"/>
<stop offset="0.0170804" stop-color="#2D813C"/>
<stop offset="0.2117" stop-color="#50A449"/>
<stop offset="0.4081" stop-color="#6CC053"/>
<stop offset="0.6047" stop-color="#80D35A"/>
<stop offset="0.8017" stop-color="#8CDF5F"/>
<stop offset="1" stop-color="#90E360"/>
</linearGradient>
<linearGradient id="paint1_linear_329_957" x1="18.2974" y1="24.3007" x2="18.2974" y2="0.283333" gradientUnits="userSpaceOnUse">
<stop stop-color="#297E3B"/>
<stop offset="0.0170804" stop-color="#2D813C"/>
<stop offset="0.2117" stop-color="#50A449"/>
<stop offset="0.4081" stop-color="#6CC053"/>
<stop offset="0.6047" stop-color="#80D35A"/>
<stop offset="0.8017" stop-color="#8CDF5F"/>
<stop offset="1" stop-color="#90E360"/>
</linearGradient>
<linearGradient id="paint2_linear_329_957" x1="20.3987" y1="41.094" x2="47.0661" y2="13.5919" gradientUnits="userSpaceOnUse">
<stop stop-color="#297E3B"/>
<stop offset="0.4471" stop-color="#2B803C"/>
<stop offset="0.6081" stop-color="#32863E"/>
<stop offset="0.7229" stop-color="#3D9242"/>
<stop offset="0.8157" stop-color="#4EA348"/>
<stop offset="0.8952" stop-color="#64B850"/>
<stop offset="0.9643" stop-color="#7FD25A"/>
<stop offset="1" stop-color="#90E360"/>
</linearGradient>
<linearGradient id="paint3_linear_329_957" x1="16.3964" y1="18.0997" x2="28.5213" y2="5.59532" gradientUnits="userSpaceOnUse">
<stop stop-color="#297E3B"/>
<stop offset="0.4471" stop-color="#2B803C"/>
<stop offset="0.6081" stop-color="#32863E"/>
<stop offset="0.7229" stop-color="#3D9242"/>
<stop offset="0.8157" stop-color="#4EA348"/>
<stop offset="0.8952" stop-color="#64B850"/>
<stop offset="0.9643" stop-color="#7FD25A"/>
<stop offset="1" stop-color="#90E360"/>
</linearGradient>
<clipPath id="clip0_329_957">
<rect width="45" height="45" fill="white"/>
</clipPath>
</defs>
</svg>
