<svg width="55" height="54" viewBox="0 0 55 54" fill="none" xmlns="http://www.w3.org/2000/svg">
  <rect x="0.447266" width="54" height="54" rx="27" fill="white"/>
  <path d="M38.8223 14.73H16.0723C14.6225 14.73 13.4473 15.9071 13.4473 17.3593V36.6408C13.4473 38.0929 14.6225 39.2701 16.0723 39.2701H38.8223C40.272 39.2701 41.4473 38.0929 41.4473 36.6408V17.3593C41.4473 15.9071 40.272 14.73 38.8223 14.73ZM38.4941 36.6408H16.4004C16.3134 36.6408 16.2299 36.6062 16.1684 36.5445C16.1068 36.4829 16.0723 36.3993 16.0723 36.3121V17.6879C16.0723 17.6008 16.1068 17.5172 16.1684 17.4555C16.2299 17.3939 16.3134 17.3593 16.4004 17.3593H38.4941C38.5812 17.3593 38.6646 17.3939 38.7262 17.4555C38.7877 17.5172 38.8223 17.6008 38.8223 17.6879V36.3121C38.8223 36.3993 38.7877 36.4829 38.7262 36.5445C38.6646 36.6062 38.5812 36.6408 38.4941 36.6408ZM36.1973 31.6013V32.9159C36.1973 33.279 35.9034 33.5733 35.541 33.5733H24.6035C24.2411 33.5733 23.9473 33.279 23.9473 32.9159V31.6013C23.9473 31.2383 24.2411 30.944 24.6035 30.944H35.541C35.9034 30.944 36.1973 31.2383 36.1973 31.6013ZM36.1973 26.3427V27.6574C36.1973 28.0204 35.9034 28.3147 35.541 28.3147H24.6035C24.2411 28.3147 23.9473 28.0204 23.9473 27.6574V26.3427C23.9473 25.9797 24.2411 25.6854 24.6035 25.6854H35.541C35.9034 25.6854 36.1973 25.9797 36.1973 26.3427ZM36.1973 21.0841V22.3988C36.1973 22.7618 35.9034 23.0561 35.541 23.0561H24.6035C24.2411 23.0561 23.9473 22.7618 23.9473 22.3988V21.0841C23.9473 20.7211 24.2411 20.4268 24.6035 20.4268H35.541C35.9034 20.4268 36.1973 20.7211 36.1973 21.0841ZM22.416 21.7414C22.416 22.8305 21.5346 23.7134 20.4473 23.7134C19.36 23.7134 18.4785 22.8305 18.4785 21.7414C18.4785 20.6524 19.36 19.7695 20.4473 19.7695C21.5346 19.7695 22.416 20.6524 22.416 21.7414ZM22.416 27C22.416 28.0891 21.5346 28.972 20.4473 28.972C19.36 28.972 18.4785 28.0891 18.4785 27C18.4785 25.911 19.36 25.0281 20.4473 25.0281C21.5346 25.0281 22.416 25.911 22.416 27ZM22.416 32.2586C22.416 33.3477 21.5346 34.2306 20.4473 34.2306C19.36 34.2306 18.4785 33.3477 18.4785 32.2586C18.4785 31.1695 19.36 30.2866 20.4473 30.2866C21.5346 30.2866 22.416 31.1695 22.416 32.2586Z" fill="#72A652"/>
</svg>
