<svg width="54" height="54" viewBox="0 0 54 54" fill="none" xmlns="http://www.w3.org/2000/svg">
  <circle cx="27" cy="27" r="27" fill="#72A652"/>
  <path d="M27 0C12.0847 0 0 12.0847 0 27C0 41.9153 12.0847 54 27 54C41.9153 54 54 41.9153 54 27C54 12.0847 41.9153 0 27 0ZM27 10.4516C32.2911 10.4516 36.5806 14.7411 36.5806 20.0323C36.5806 25.3234 32.2911 29.6129 27 29.6129C21.7089 29.6129 17.4194 25.3234 17.4194 20.0323C17.4194 14.7411 21.7089 10.4516 27 10.4516ZM27 47.9032C20.6093 47.9032 14.8827 45.0073 11.0504 40.4782C13.0972 36.6242 17.1036 33.9677 21.7742 33.9677C22.0355 33.9677 22.2968 34.0113 22.5472 34.0875C23.9625 34.5448 25.4431 34.8387 27 34.8387C28.5569 34.8387 30.0484 34.5448 31.4528 34.0875C31.7032 34.0113 31.9645 33.9677 32.2258 33.9677C36.8964 33.9677 40.9028 36.6242 42.9496 40.4782C39.1173 45.0073 33.3907 47.9032 27 47.9032Z" fill="white"/>
</svg>
