<svg width="54" height="54" viewBox="0 0 54 54" fill="none" xmlns="http://www.w3.org/2000/svg">
  <rect width="54" height="54" rx="27" fill="white"/>
  <path d="M42.0847 29.0495C42.6693 28.0578 43 27.0001 43 25.7214C43 22.7822 40.5188 20.0067 37.2787 20.0067H34.8467C35.1747 19.1513 35.4367 18.1283 35.4367 16.8989C35.4367 12.0381 32.924 9.90552 29.0853 9.90552C24.9782 9.90552 25.2125 16.2447 24.3013 17.1574C22.7849 18.6763 20.9937 21.5944 19.7173 22.7265H13.1333C11.9551 22.7265 11 23.6832 11 24.8633V40.8895C11 42.0696 11.9551 43.0263 13.1333 43.0263H17.4C18.3929 43.0263 19.2272 42.3469 19.4652 41.427C22.4325 41.4939 24.4692 44.094 31.3187 44.094C31.8 44.094 32.3333 44.0947 32.8 44.0947C37.9411 44.0947 40.2657 41.4622 40.3293 37.729C41.2173 36.4986 41.6826 34.8495 41.4853 33.2557C42.1423 32.0235 42.3963 30.5617 42.0847 29.0495ZM37.968 32.644C38.8053 34.055 38.052 35.9434 37.0387 36.4883C37.552 39.7456 35.8648 40.8888 33.4973 40.8888H30.976C26.2001 40.8888 23.1074 38.3633 19.5333 38.3633V25.9317H20.2613C22.152 25.9317 24.7933 21.198 26.564 19.4237C28.4547 17.53 27.8247 14.3735 29.0853 13.1108C32.2367 13.1108 32.2367 15.313 32.2367 16.8989C32.2367 19.5146 30.346 20.6865 30.346 23.2119H37.2787C38.686 23.2119 39.794 24.4747 39.8 25.7374C39.806 26.9994 38.9453 28.2622 38.3153 28.2622C39.2146 29.2341 39.4067 31.2828 37.968 32.644ZM16.8667 38.7526C16.8667 39.6378 16.1503 40.3553 15.2667 40.3553C14.383 40.3553 13.6667 39.6378 13.6667 38.7526C13.6667 37.8675 14.383 37.15 15.2667 37.15C16.1503 37.15 16.8667 37.8675 16.8667 38.7526Z" fill="#72A652"/>
</svg>
